<svg width="16" height="14" viewBox="0 0 16 14" fill="none" xmlns="http://www.w3.org/2000/svg">
<path d="M5.63071 8.47429L5.04509 7.88867L3.67868 9.25508C3.51596 9.4178 3.51596 9.678 3.67868 9.8407L5.04509 11.2071L5.63071 10.6215L4.96372 9.95463H7.17606V9.12503L4.96372 9.12492L5.63071 8.47429Z" fill="black"/>
<path d="M10.4122 7.88867L9.8266 8.47429L10.4936 9.14127H8.28125V9.97087H10.4936L9.8266 10.6378L10.4122 11.2235L11.7786 9.85705C11.9413 9.69434 11.9413 9.43414 11.7786 9.27144L10.4122 7.88867Z" fill="black"/>
<path d="M15.3575 5.70954L7.85836 0.536595C7.777 0.487802 7.67942 0.487802 7.59806 0.536595L0.09891 5.70954C0.00132465 5.77456 -0.0312417 5.92105 0.0338908 6.03486L0.342996 6.4741C0.375562 6.52289 0.424355 6.55546 0.489374 6.57169C0.554393 6.58791 0.603299 6.57169 0.668318 6.53912L1.82334 5.742V13.4364C1.82334 13.5665 1.92093 13.6641 2.05108 13.6641H2.58789C2.71804 13.6641 2.81563 13.5665 2.81563 13.4364L2.81551 5.25399C2.81551 5.12383 2.88053 4.99369 2.99446 4.92867L7.50045 1.82165C7.56547 1.77286 7.64683 1.75663 7.72819 1.75663C7.80954 1.75663 7.89091 1.77286 7.95592 1.82165L12.4619 4.92867C12.5758 5.01003 12.6409 5.12384 12.6409 5.25399V13.4364C12.6409 13.5665 12.7385 13.6641 12.8686 13.6641H13.4054C13.5356 13.6641 13.6331 13.5665 13.6331 13.4364V5.72573L14.7882 6.52285C14.837 6.55542 14.9021 6.57164 14.9671 6.55542C15.0321 6.53919 15.081 6.50663 15.1135 6.45783L15.4226 6.01859C15.4552 5.9698 15.4714 5.90467 15.4552 5.83965C15.4388 5.79085 15.4063 5.74195 15.3575 5.70949L15.3575 5.70954Z" fill="black"/>
</svg>
