<svg width="14" height="16" viewBox="0 0 14 16" fill="none" xmlns="http://www.w3.org/2000/svg">
<path d="M4.09745 7.90414V6.59647H5.40511V7.90414H4.09745ZM8.59745 7.90414V6.59647H9.90511V7.90414H8.59745ZM0.417969 15.5836V10.1766H1.41797V6.0003C1.41797 5.22722 1.56354 4.5011 1.85468 3.82195C2.1458 3.14278 2.54342 2.55064 3.04753 2.04553C3.55163 1.54044 4.14264 1.14274 4.82057 0.85245C5.4985 0.562145 6.22541 0.416992 7.00128 0.416992C7.7812 0.416992 8.50911 0.562152 9.18501 0.852471C9.86091 1.14278 10.4513 1.5404 10.9563 2.04533C11.4612 2.55026 11.8588 3.14067 12.1491 3.81658C12.4394 4.49248 12.5846 5.22039 12.5846 6.0003V10.1766H13.5846V15.5836H0.417969ZM1.50128 14.5003H3.33464V11.2599H1.50128V14.5003ZM4.41793 14.5003H6.45964V11.2599H4.41793V14.5003ZM2.50128 10.1766H6.45964V1.54678C5.38164 1.67712 4.44894 2.15895 3.66155 2.99228C2.87415 3.82562 2.48739 4.82829 2.50128 6.0003V10.1766ZM7.54293 10.1766H11.5013V6.0003C11.5013 4.82829 11.1111 3.82562 10.3306 2.99228C9.55015 2.15895 8.62093 1.67712 7.54293 1.54678V10.1766ZM7.54293 14.5003H9.58463V11.2599H7.54293V14.5003ZM10.6679 14.5003H12.5013V11.2599H10.6679V14.5003Z" fill="#1C1B1F"/>
</svg>
