<svg width="16" height="16" viewBox="0 0 16 16" fill="none" xmlns="http://www.w3.org/2000/svg">
<path d="M15.3109 6.89859H3.31034V3.58797C3.31034 2.52331 4.17672 1.65722 5.24137 1.65722H8C8.15247 1.65722 8.27588 1.53369 8.27588 1.38134C8.27588 1.229 8.1525 1.10547 8 1.10547H5.24137C3.87231 1.10547 2.75863 2.21916 2.75863 3.58797V6.89859H0.689125C0.309281 6.89859 0 7.20797 0 7.58825C0 7.9685 0.309281 8.27791 0.689125 8.27791H1.10344V11.864C1.10344 12.9283 1.96956 13.7942 3.03453 13.7951L2.53797 14.4572C2.44637 14.5791 2.47116 14.752 2.59319 14.8434C2.64275 14.8807 2.70069 14.8986 2.75831 14.8986C2.84238 14.8986 2.92506 14.8605 2.97922 14.7883L3.72409 13.7952H12.5517L13.2966 14.7883C13.3507 14.8605 13.4334 14.8986 13.5175 14.8986C13.5751 14.8986 13.633 14.8807 13.6826 14.8434C13.8046 14.7521 13.8294 14.5791 13.7378 14.4572L13.2263 13.7752C14.1679 13.6464 14.8965 12.8395 14.8965 11.864V8.27791H15.3108C15.6907 8.27791 15.9999 7.9685 15.9999 7.58825C16 7.20797 15.6907 6.89859 15.3109 6.89859ZM14.3448 11.864C14.3448 12.6246 13.7252 13.2434 12.9636 13.2434H3.03609C2.27478 13.2434 1.65516 12.6246 1.65516 11.864V8.27791H14.3448V11.864ZM15.3109 7.72616H14.6207H1.37931H0.689125C0.612063 7.72616 0.551719 7.66553 0.551719 7.58822C0.551719 7.51213 0.613406 7.45028 0.689125 7.45028H15.3109C15.3879 7.45028 15.4483 7.51091 15.4483 7.58822C15.4483 7.66434 15.3866 7.72616 15.3109 7.72616Z" fill="black"/>
<path d="M9.08869 3.22356L8.81282 2.39597C8.7646 2.25156 8.6097 2.17263 8.46395 2.22153C8.31955 2.26975 8.24142 2.426 8.28964 2.57053L8.56551 3.39812C8.60404 3.51369 8.71151 3.58684 8.8271 3.58684C8.85591 3.58684 8.88529 3.58225 8.91438 3.57256C9.05879 3.52434 9.13691 3.36809 9.08869 3.22356Z" fill="black"/>
<path d="M7.53549 2.49882C7.38949 2.45007 7.23483 2.52885 7.18661 2.67325L6.91073 3.50085C6.86252 3.64538 6.94064 3.80163 7.08505 3.84984C7.11414 3.85953 7.14352 3.86413 7.17233 3.86413C7.28789 3.86413 7.39539 3.79097 7.43392 3.67541L7.7098 2.84782C7.75802 2.70328 7.67989 2.54704 7.53549 2.49882Z" fill="black"/>
<path d="M10.3601 2.25445L9.53248 1.70273C9.40504 1.61801 9.23398 1.65236 9.14994 1.77923C9.06535 1.90598 9.09957 2.07733 9.22644 2.16176L10.054 2.71348C10.1012 2.74486 10.1543 2.75983 10.2068 2.75983C10.296 2.75983 10.3835 2.71673 10.4366 2.63698C10.5212 2.51023 10.487 2.33889 10.3601 2.25445Z" fill="black"/>
</svg>
