<svg width="15" height="16" viewBox="0 0 15 16" fill="none" xmlns="http://www.w3.org/2000/svg">
<path d="M13.217 5.95292V0.838937C13.217 0.651825 13.0652 0.5 12.8781 0.5H2.03339C1.84639 0.5 1.69457 0.651825 1.69457 0.838937V5.95292C0.734374 6.11518 0 6.95033 0 7.95578V13.3783C0 13.5654 0.151825 13.7172 0.338937 13.7172H1.0167V15.0728C1.0167 15.2599 1.16852 15.4118 1.35563 15.4118H2.71127C2.89838 15.4118 3.0502 15.2599 3.0502 15.0728V13.7172H11.8615V15.0728C11.8615 15.2599 12.0133 15.4118 12.2004 15.4118H13.556C13.7432 15.4118 13.895 15.2599 13.895 15.0728V13.7172H14.5727C14.7599 13.7172 14.9117 13.5654 14.9117 13.3783L14.9116 7.95578C14.9116 6.95033 14.1772 6.11518 13.217 5.95292H13.217ZM2.37233 1.17793H12.5393V5.92242H11.8615V4.56678C11.8615 4.37967 11.7097 4.22785 11.5226 4.22785H8.47251C8.28539 4.22785 8.13357 4.37967 8.13357 4.56678V5.92242H6.77793V4.56678C6.77793 4.37967 6.62611 4.22785 6.439 4.22785H3.38891C3.2018 4.22785 3.04997 4.37967 3.04997 4.56678V5.92242H2.37233V1.17793ZM11.1836 5.92242H8.81127V4.90572H11.1836V5.92242ZM6.10012 5.92242H3.72779V4.90572H6.10012V5.92242ZM2.03333 6.60018H12.8783C13.6259 6.60018 14.2339 7.20816 14.2339 7.95581V8.29475H0.677875V7.95581C0.677875 7.20816 1.28586 6.60018 2.03339 6.60018H2.03333ZM2.37227 14.7337H1.69451V13.717H2.37227V14.7337ZM13.2169 14.7337H12.5392V13.717H13.2169V14.7337ZM13.5559 13.0393H0.677817V8.97251H14.2339V13.0393H13.5559Z" fill="black"/>
</svg>
