<svg width="21" height="16" viewBox="0 0 21 16" fill="none" xmlns="http://www.w3.org/2000/svg">
<path d="M12.0781 5.57473V4.62473C12.5781 4.35806 13.1094 4.16223 13.6719 4.03723C14.2344 3.91223 14.8125 3.84973 15.4062 3.84973C15.7812 3.84973 16.1445 3.8789 16.4961 3.93723C16.8477 3.99556 17.2031 4.07473 17.5625 4.17473V5.04973C17.2188 4.9164 16.8711 4.82056 16.5195 4.76223C16.168 4.7039 15.7969 4.67473 15.4062 4.67473C14.8125 4.67473 14.2344 4.7539 13.6719 4.91223C13.1094 5.07056 12.5781 5.2914 12.0781 5.57473ZM12.0781 11.0497V10.0497C12.5781 9.8164 13.1094 9.63723 13.6719 9.51223C14.2344 9.38723 14.8125 9.32473 15.4062 9.32473C15.7812 9.32473 16.1445 9.3539 16.4961 9.41223C16.8477 9.47056 17.2031 9.5414 17.5625 9.62473V10.5247C17.2188 10.3914 16.8711 10.2956 16.5195 10.2372C16.168 10.1789 15.7969 10.1497 15.4062 10.1497C14.8125 10.1497 14.2344 10.2247 13.6719 10.3747C13.1094 10.5247 12.5781 10.7497 12.0781 11.0497ZM12.0781 8.32473V7.34973C12.5781 7.09973 13.1094 6.90806 13.6719 6.77473C14.2344 6.6414 14.8125 6.57473 15.4062 6.57473C15.7812 6.57473 16.1445 6.6039 16.4961 6.66223C16.8477 6.72056 17.2031 6.79973 17.5625 6.89973V7.77473C17.2188 7.65806 16.8711 7.57056 16.5195 7.51223C16.168 7.4539 15.7969 7.42473 15.4062 7.42473C14.8125 7.42473 14.2344 7.5039 13.6719 7.66223C13.1094 7.82056 12.5781 8.0414 12.0781 8.32473ZM4.88281 12.3747C5.74219 12.3747 6.57422 12.4831 7.37891 12.6997C8.18359 12.9164 8.97656 13.2497 9.75781 13.6997V3.24973C9.05469 2.7164 8.28125 2.31223 7.4375 2.03723C6.59375 1.76223 5.74219 1.62473 4.88281 1.62473C4.28906 1.62473 3.74609 1.68306 3.25391 1.79973C2.76172 1.9164 2.23437 2.08306 1.67187 2.29973C1.59375 2.33306 1.53906 2.37473 1.50781 2.42473C1.47656 2.47473 1.46094 2.52473 1.46094 2.57473V12.7247C1.46094 12.8081 1.49219 12.8706 1.55469 12.9122C1.61719 12.9539 1.6875 12.9664 1.76562 12.9497C2.15625 12.7497 2.625 12.6039 3.17187 12.5122C3.71875 12.4206 4.28906 12.3747 4.88281 12.3747ZM10.8125 13.6997C11.6094 13.2497 12.3945 12.9164 13.168 12.6997C13.9414 12.4831 14.7578 12.3747 15.6172 12.3747C16.2109 12.3747 16.7852 12.4206 17.3398 12.5122C17.8945 12.6039 18.3594 12.7164 18.7344 12.8497C18.8125 12.8831 18.8828 12.8789 18.9453 12.8372C19.0078 12.7956 19.0391 12.7247 19.0391 12.6247V2.57473C19.0391 2.52473 19.0234 2.47473 18.9922 2.42473C18.9609 2.37473 18.9062 2.33306 18.8281 2.29973C18.3125 2.0664 17.7969 1.89556 17.2812 1.78723C16.7656 1.6789 16.2109 1.62473 15.6172 1.62473C14.7578 1.62473 13.918 1.76223 13.0977 2.03723C12.2773 2.31223 11.5156 2.7164 10.8125 3.24973V13.6997ZM10.2734 15.3747C9.49219 14.7914 8.64062 14.3372 7.71875 14.0122C6.79688 13.6872 5.85156 13.5247 4.88281 13.5247C4.38281 13.5247 3.88672 13.5831 3.39453 13.6997C2.90234 13.8164 2.40625 13.9581 1.90625 14.1247C1.54687 14.3081 1.20703 14.2789 0.886719 14.0372C0.566406 13.7956 0.40625 13.4581 0.40625 13.0247V2.49973C0.40625 2.23306 0.46875 1.9914 0.59375 1.77473C0.71875 1.55806 0.890625 1.3914 1.10938 1.27473C1.70312 1.00806 2.31641 0.808065 2.94922 0.674732C3.58203 0.541398 4.22656 0.474731 4.88281 0.474731C5.85156 0.474731 6.79297 0.620565 7.70703 0.912231C8.62109 1.2039 9.48438 1.6414 10.2969 2.22473C11.0781 1.6414 11.9219 1.2039 12.8281 0.912231C13.7344 0.620565 14.6641 0.474731 15.6172 0.474731C16.2734 0.474731 16.9141 0.541398 17.5391 0.674732C18.1641 0.808065 18.7734 1.00806 19.3672 1.27473C19.6016 1.3914 19.7812 1.55806 19.9062 1.77473C20.0312 1.9914 20.0938 2.23306 20.0938 2.49973V13.0247C20.0938 13.4747 19.918 13.8206 19.5664 14.0622C19.2148 14.3039 18.8672 14.3247 18.5234 14.1247C18.0391 13.9414 17.5547 13.7956 17.0703 13.6872C16.5859 13.5789 16.1016 13.5247 15.6172 13.5247C14.6484 13.5247 13.7148 13.6872 12.8164 14.0122C11.918 14.3372 11.0703 14.7914 10.2734 15.3747Z" fill="white"/>
</svg>
