<svg width="139" height="16" viewBox="0 0 139 16" fill="none" xmlns="http://www.w3.org/2000/svg">
<path d="M138.894 1.13882L138.956 1.00715H126.774C123.183 1.00715 120.124 1.65054 117.595 2.93733C115.142 4.15913 113.226 6.0648 112.152 8.35082C111.444 9.82913 111.242 11.1718 111.547 12.3788C111.711 12.9908 112.041 13.559 112.51 14.0349C112.979 14.5107 113.572 14.8799 114.24 15.111C115.563 15.6117 117.77 15.8621 120.859 15.8621H131.865L132.962 13.504H126.774C123.785 13.504 121.796 13.1668 120.807 12.4925C119.717 11.7653 119.84 10.0775 120.691 8.30294C122.167 5.21465 125.257 3.29045 129.531 3.29045H134.325L133.222 5.60966H136.875L139 1.13882H138.894ZM96.2182 9.91592L103.63 3.59868L105.171 9.91592H96.2182ZM33.1901 9.93986L40.407 3.89195L41.7089 9.93986H33.1901ZM102.994 0.992188H98.4803L81.1112 15.2366L87.8976 1.00715H80.4552L71.4614 7.17775L66.8313 10.5084H66.6331L68.8132 5.65754L66.1444 1.00715H58.6679L51.8679 15.2636L47.9485 1.00715H39.7475L21.637 15.8621H26.1783L30.805 11.9718H42.2078L43.1167 15.8621H55.2337L59.6144 6.678C59.8365 6.21715 60.0449 5.68747 60.2534 5.09495C60.2882 5.62229 60.4366 6.1391 60.6908 6.61815L64.5452 14.279H65.1945L76.218 6.64807C76.8754 6.16096 77.5017 5.64246 78.094 5.09495C77.6668 5.78622 77.3695 6.31291 77.1953 6.678L72.8146 15.8621H80.814H89.2473L93.8228 11.9718H105.666L106.616 15.8621H110.782L106.726 0.992188H102.994ZM23.6701 12.3788C25.0607 11.25 26.1644 9.87765 26.9095 8.35082C28.0166 6.02862 27.9221 4.22412 26.6259 2.93733C25.3297 1.65054 22.883 1.00715 19.286 1.00715H7.11436L6.01406 3.33235H14.3962C18.6709 3.33235 19.9113 5.19969 18.4352 8.28798C17.5843 10.0835 16.8291 11.7204 15.0488 12.4536C13.4223 13.1239 11.7377 13.3214 8.74773 13.3214H4.86934L7.76361 7.30643H4.1005L0 15.8621H11.0338C14.1273 15.8621 16.5717 15.6117 18.3668 15.111C20.3439 14.5556 22.1554 13.6224 23.6701 12.3788Z" fill="black"/>
</svg>
