<svg width="264" height="45" viewBox="0 0 264 45" fill="none" xmlns="http://www.w3.org/2000/svg">
<path d="M112.43 36.4736C112.392 35.9586 112.525 35.6344 112.01 35.4245C111.304 35.1384 110.389 35.0049 109.645 35.0049C106.821 35.0049 104.054 37.1222 104.054 40.1741C104.054 41.6429 104.665 42.8446 105.752 43.7602C106.783 44.6377 108.023 44.9619 109.339 44.9619C110.408 44.9619 111.552 44.733 112.468 44.1226C112.812 43.8937 112.735 43.7221 112.735 43.3215V41.5666C112.735 41.3377 112.697 40.899 112.888 40.7273C112.983 40.6129 113.212 40.6129 113.346 40.6129L113.632 40.5747C113.766 40.5747 113.918 40.5556 113.918 40.384C113.918 40.2314 113.785 40.1932 113.67 40.1932C113.155 40.1932 112.659 40.2505 112.163 40.2505C111.629 40.2505 111.095 40.1932 110.579 40.1932C110.446 40.1932 110.236 40.1932 110.236 40.384C110.236 40.5747 110.446 40.5747 110.579 40.5747C111.438 40.5747 111.571 40.7083 111.571 41.5666V42.8446C111.571 43.207 111.61 43.8747 111.285 44.1226C110.885 44.466 110.121 44.5423 109.606 44.5423C108.347 44.5423 107.279 44.1989 106.439 43.188C105.695 42.2915 105.371 41.2233 105.371 40.0597C105.371 38.9534 105.733 37.6563 106.439 36.7788C107.183 35.806 108.233 35.4245 109.396 35.4245C111.991 35.4245 111.724 37.4083 112.22 37.4083C112.373 37.4083 112.449 37.2557 112.449 37.1031L112.43 36.4736Z" fill="black" fill-opacity="0.8"/>
<path d="M116.815 36.4525C116.815 36.1854 116.777 35.8611 117.044 35.7467C117.273 35.6513 117.922 35.6513 118.151 35.6513C118.647 35.6513 119.276 35.6513 119.772 35.8039C120.249 35.9565 120.459 36.2236 120.688 36.7005L120.917 37.1202C120.955 37.2347 121.012 37.4254 121.146 37.4254C121.299 37.4254 121.28 37.1965 121.28 37.1011V35.7848C121.28 35.5941 121.356 35.2125 121.07 35.2125C119.83 35.2125 118.589 35.2698 117.33 35.2698C116.414 35.2698 115.48 35.2125 114.564 35.2125C114.43 35.2125 114.316 35.2888 114.316 35.4414C114.316 35.6322 114.545 35.6322 114.697 35.6322C115.709 35.6322 115.651 35.9374 115.651 36.8913V43.1294C115.651 44.1023 115.709 44.4075 114.697 44.4075C114.545 44.4075 114.316 44.4266 114.316 44.5983C114.316 44.77 114.43 44.8272 114.564 44.8272C114.869 44.8272 115.174 44.77 115.48 44.77H121.222C121.337 44.77 121.375 44.789 121.375 44.6746L121.604 43.0531C121.642 42.9386 121.661 42.8051 121.661 42.6906C121.661 42.5761 121.623 42.5189 121.508 42.5189C121.337 42.5189 121.222 42.9386 121.184 43.034C120.688 44.3884 119.868 44.4075 118.609 44.4075C117.445 44.4075 116.796 44.3884 116.796 42.9768V40.306C116.796 39.7909 116.949 39.7909 117.54 39.7909C117.979 39.7909 118.742 39.7909 119.314 39.9245C119.639 40.0008 119.753 40.4586 119.83 40.8974C119.849 40.9928 119.887 41.1645 120.02 41.1645C120.097 41.1645 120.173 41.1263 120.173 40.8974C120.154 40.4014 120.135 39.9436 120.097 39.4666C120.116 39.0469 120.154 38.57 120.173 38.1503C120.173 38.0359 120.078 37.9977 120.02 37.9977C119.887 37.9977 119.849 38.1694 119.83 38.2648C119.753 38.7036 119.677 39.2759 119.314 39.314C118.742 39.3903 117.979 39.3713 117.54 39.3713C116.93 39.3713 116.796 39.3713 116.796 38.6463V36.4525H116.815Z" fill="black" fill-opacity="0.8"/>
<path d="M136.41 36.4525C136.41 36.1854 136.372 35.8611 136.639 35.7467C136.868 35.6513 137.517 35.6513 137.746 35.6513C138.242 35.6513 138.872 35.6513 139.368 35.8039C139.845 35.9565 140.054 36.2236 140.283 36.7005L140.512 37.1202C140.551 37.2347 140.608 37.4254 140.741 37.4254C140.894 37.4254 140.875 37.1965 140.875 37.1011V35.7848C140.875 35.5941 140.951 35.2125 140.665 35.2125C139.425 35.2125 138.185 35.2698 136.926 35.2698C136.01 35.2698 135.075 35.2125 134.159 35.2125C134.026 35.2125 133.911 35.2888 133.911 35.4414C133.911 35.6322 134.14 35.6322 134.293 35.6322C135.304 35.6322 135.247 35.9374 135.247 36.8913V43.1294C135.247 44.1023 135.304 44.4075 134.293 44.4075C134.14 44.4075 133.911 44.4266 133.911 44.5983C133.911 44.77 134.026 44.8272 134.159 44.8272C134.445 44.8272 134.77 44.77 135.075 44.77H140.818C140.932 44.77 140.97 44.789 140.97 44.6746L141.199 43.0531C141.237 42.9386 141.256 42.8051 141.256 42.6906C141.256 42.5761 141.218 42.5189 141.104 42.5189C140.932 42.5189 140.818 42.9386 140.779 43.034C140.283 44.3884 139.482 44.4075 138.204 44.4075C137.04 44.4075 136.391 44.3884 136.391 42.9768V40.306C136.391 39.7909 136.544 39.7909 137.135 39.7909C137.574 39.7909 138.337 39.7909 138.91 39.9245C139.234 40.0008 139.349 40.4586 139.425 40.8974C139.444 40.9928 139.482 41.1645 139.616 41.1645C139.692 41.1645 139.768 41.1263 139.768 40.8974C139.749 40.4014 139.73 39.9436 139.692 39.4666C139.711 39.0469 139.749 38.57 139.768 38.1503C139.768 38.0359 139.673 37.9977 139.616 37.9977C139.482 37.9977 139.444 38.1694 139.425 38.2648C139.349 38.7036 139.272 39.2759 138.91 39.314C138.337 39.3903 137.574 39.3713 137.135 39.3713C136.525 39.3713 136.391 39.3713 136.391 38.6463V36.4525H136.41Z" fill="black" fill-opacity="0.8"/>
<path d="M147.343 43.0133L144.711 36.5091C144.634 36.3184 144.52 36.1086 144.52 35.8988C144.52 35.6127 145.149 35.6508 145.245 35.6318C145.359 35.6127 145.531 35.5936 145.531 35.4219C145.531 35.2312 145.378 35.2312 145.245 35.2312C144.787 35.2312 144.348 35.2884 143.909 35.2884C143.375 35.2884 142.879 35.2312 142.364 35.2312C142.23 35.2312 142.059 35.2503 142.059 35.4219C142.059 35.6508 142.307 35.6508 142.459 35.6508C143.146 35.6508 143.318 36.1277 143.528 36.6808L146.676 44.5392C146.714 44.6346 146.79 44.9779 146.943 44.9779C147.057 44.9779 147.153 44.6346 147.172 44.5392L150.186 36.8715C150.301 36.5473 150.511 36.0895 150.739 35.8606C150.911 35.708 151.14 35.6699 151.35 35.6699C151.484 35.6699 151.693 35.6318 151.693 35.4601C151.693 35.3266 151.598 35.2693 151.484 35.2693C151.064 35.2693 150.663 35.3266 150.243 35.3266C149.824 35.3266 149.385 35.2693 148.984 35.2693C148.832 35.2693 148.66 35.3075 148.66 35.4982C148.66 35.7271 149.175 35.689 149.309 35.689C149.576 35.689 149.919 35.7653 149.919 36.1086C149.919 36.3375 149.786 36.6808 149.709 36.8906L147.343 43.0133Z" fill="black" fill-opacity="0.8"/>
<path d="M154.367 36.4525C154.367 36.1854 154.328 35.8611 154.596 35.7467C154.825 35.6513 155.473 35.6513 155.702 35.6513C156.198 35.6513 156.828 35.6513 157.324 35.8039C157.801 35.9565 158.011 36.2236 158.24 36.7005L158.469 37.1202C158.507 37.2347 158.564 37.4254 158.698 37.4254C158.85 37.4254 158.831 37.1965 158.831 37.1011V35.7848C158.831 35.5941 158.907 35.2125 158.621 35.2125C157.381 35.2125 156.141 35.2698 154.882 35.2698C153.966 35.2698 153.031 35.2125 152.115 35.2125C151.982 35.2125 151.867 35.2888 151.867 35.4414C151.867 35.6322 152.096 35.6322 152.249 35.6322C153.26 35.6322 153.203 35.9374 153.203 36.8913V43.1294C153.203 44.1023 153.26 44.4075 152.249 44.4075C152.096 44.4075 151.867 44.4266 151.867 44.5983C151.867 44.77 151.982 44.8272 152.115 44.8272C152.421 44.8272 152.726 44.77 153.031 44.77H158.774C158.888 44.77 158.926 44.789 158.926 44.6746L159.155 43.0531C159.194 42.9386 159.213 42.8051 159.213 42.6906C159.213 42.5761 159.174 42.5189 159.06 42.5189C158.888 42.5189 158.774 42.9386 158.736 43.034C158.24 44.3884 157.438 44.4075 156.16 44.4075C154.996 44.4075 154.348 44.3884 154.348 42.9768V40.306C154.348 39.7909 154.5 39.7909 155.092 39.7909C155.53 39.7909 156.294 39.7909 156.866 39.9245C157.19 40.0008 157.305 40.4586 157.381 40.8974C157.4 40.9928 157.438 41.1645 157.572 41.1645C157.648 41.1645 157.724 41.1263 157.724 40.8974C157.705 40.4014 157.686 39.9436 157.648 39.4666C157.667 39.0469 157.705 38.57 157.724 38.1503C157.724 38.0359 157.629 37.9977 157.572 37.9977C157.438 37.9977 157.4 38.1694 157.381 38.2648C157.305 38.7036 157.228 39.2759 156.866 39.314C156.294 39.3903 155.53 39.3713 155.092 39.3713C154.481 39.3713 154.348 39.3713 154.348 38.6463V36.4525H154.367Z" fill="black" fill-opacity="0.8"/>
<path d="M131.167 42.8063L125.653 35.7862C125.463 35.5382 125.348 35.3284 125.024 35.2521H123.097C122.925 35.2521 122.715 35.2712 122.715 35.5001C122.715 35.6718 122.963 35.6718 123.097 35.6718C124.184 35.6718 124.108 35.977 124.108 36.9499V43.2069C124.108 44.1607 124.184 44.4659 123.097 44.4659C122.963 44.4659 122.696 44.4277 122.696 44.6185C122.696 44.7902 122.83 44.8474 122.982 44.8474C123.44 44.8474 123.898 44.7902 124.337 44.7902C124.795 44.7902 125.234 44.8474 125.711 44.8474C125.863 44.8474 125.978 44.7902 125.978 44.6185C125.978 44.4277 125.73 44.4659 125.596 44.4659C124.509 44.4659 124.585 44.1416 124.585 43.2069V36.3013L131.129 44.6376C131.205 44.752 131.339 45 131.511 45C131.644 45 131.625 44.7902 131.625 44.7139V36.9499C131.625 35.996 131.568 35.6718 132.636 35.6718C132.789 35.6718 133.037 35.6718 133.037 35.5001C133.037 35.3284 132.903 35.2521 132.77 35.2521C132.312 35.2521 131.873 35.3093 131.415 35.3093C130.957 35.3093 130.518 35.2521 130.042 35.2521C129.889 35.2521 129.755 35.3284 129.755 35.5001C129.755 35.6718 130.003 35.6718 130.137 35.6718C131.224 35.6718 131.167 35.977 131.167 36.9499V42.8063Z" fill="black" fill-opacity="0.8"/>
<path d="M67.3844 3.83597C67.2699 2.46254 67.7087 1.71859 66.3541 1.18448C64.4463 0.402383 61.9851 0.020874 59.9627 0.020874C52.3503 0.020874 44.8905 5.72445 44.8905 14.0032C44.8905 17.9709 46.5504 21.1947 49.4885 23.7126C52.274 26.078 55.5937 26.9364 59.1614 26.9364C62.0614 26.9364 65.1522 26.3069 67.6133 24.6664C68.5291 24.056 68.3193 23.5982 68.3193 22.5109V17.7611C68.3193 17.1507 68.2429 15.9489 68.7581 15.4911C69.0443 15.205 69.6357 15.205 69.9791 15.1668L70.7423 15.0905C71.1048 15.0905 71.4863 15.0524 71.4863 14.5564C71.4863 14.1367 71.1238 14.0604 70.8186 14.0604H62.443C62.0805 14.0604 61.5272 14.0604 61.5272 14.5946C61.5272 15.1287 62.0805 15.0905 62.4811 15.0905C64.7897 15.0905 65.1713 15.453 65.1713 17.7802V21.2138C65.1713 22.2057 65.2476 23.9797 64.4081 24.6855C63.3015 25.6393 61.241 25.8491 59.8864 25.8491C56.4713 25.8491 53.5714 24.8953 51.3201 22.1675C49.2977 19.764 48.4582 16.8836 48.4582 13.7362C48.4582 10.7604 49.4503 7.25049 51.3201 4.88513C53.3424 2.27178 56.1661 1.24171 59.295 1.24171C66.316 1.24171 65.5719 6.58285 66.9074 6.58285C67.3462 6.58285 67.4989 6.16319 67.4989 5.7626L67.3844 3.83597Z" fill="black" fill-opacity="0.8"/>
<path d="M79.081 4.86613C79.081 1.96655 79.1573 1.56595 82.1717 1.56595C85.7013 1.56595 87.8954 3.62618 87.8954 7.44142C87.8954 9.10105 87.3802 10.6271 86.0638 11.6573C84.5566 12.8591 82.9349 13.0308 81.1033 13.0308C80.4356 13.0308 79.081 13.3169 79.081 12.2868V4.86613ZM75.933 22.1492C75.933 24.7626 76.1238 25.5829 73.3573 25.5829C72.9948 25.5829 72.3652 25.5447 72.3652 26.0789C72.3652 26.5367 72.6896 26.613 73.033 26.613C74.5402 26.613 76.0474 26.4413 77.5547 26.4413C79.0619 26.4413 80.4928 26.613 82 26.613C82.3625 26.613 82.6678 26.5367 82.6678 26.0789C82.6678 25.5447 82 25.5829 81.6375 25.5829C78.8902 25.5447 79.0619 24.8008 79.0619 22.1492V15.7777C79.0619 15.3962 79.0237 14.4042 79.2527 14.1181C79.4435 13.8701 79.806 13.9083 80.1303 13.9083C83.1447 13.9083 83.1066 14.2326 84.5375 17.1321L88.4296 25.2014C88.7539 25.8118 88.9829 26.613 89.7842 26.613H93.9815C94.3058 26.613 94.6874 26.5749 94.6874 26.1552C94.6874 25.5829 93.9815 25.5829 93.6572 25.5829C91.921 25.5829 91.3105 24.0187 90.6046 22.5689L87.3993 16.1211C86.846 15.0528 86.2546 13.603 84.9763 13.3932C88.2769 12.9354 91.2532 10.7416 91.2532 6.98359C91.2532 2.63422 87.5138 0.70752 83.7553 0.70752C81.4849 0.70752 79.2718 0.879206 76.9632 0.879206C75.6849 0.879206 74.3494 0.70752 73.0711 0.70752C72.6323 0.70752 72.3652 0.879207 72.3652 1.31796C72.3652 1.81394 72.9948 1.81394 73.3573 1.81394C76.1428 1.81394 75.933 2.59607 75.933 5.24766V22.1492Z" fill="black" fill-opacity="0.8"/>
<path d="M79.081 4.86613C79.081 1.96655 79.1573 1.56595 82.1717 1.56595C85.7013 1.56595 87.8954 3.62618 87.8954 7.44142C87.8954 9.10105 87.3802 10.6271 86.0638 11.6573C84.5566 12.8591 82.9349 13.0308 81.1033 13.0308C80.4356 13.0308 79.081 13.3169 79.081 12.2868V4.86613ZM75.933 22.1492C75.933 24.7626 76.1238 25.5829 73.3573 25.5829C72.9948 25.5829 72.3652 25.5447 72.3652 26.0789C72.3652 26.5367 72.6896 26.613 73.033 26.613C74.5402 26.613 76.0474 26.4413 77.5547 26.4413C79.0619 26.4413 80.4928 26.613 82 26.613C82.3625 26.613 82.6678 26.5367 82.6678 26.0789C82.6678 25.5447 82 25.5829 81.6375 25.5829C78.8902 25.5447 79.0619 24.8008 79.0619 22.1492V15.7777C79.0619 15.3962 79.0237 14.4042 79.2527 14.1181C79.4435 13.8701 79.806 13.9083 80.1303 13.9083C83.1447 13.9083 83.1066 14.2326 84.5375 17.1321L88.4296 25.2014C88.7539 25.8118 88.9829 26.613 89.7842 26.613H93.9815C94.3058 26.613 94.6874 26.5749 94.6874 26.1552C94.6874 25.5829 93.9815 25.5829 93.6572 25.5829C91.921 25.5829 91.3105 24.0187 90.6046 22.5689L87.3993 16.1211C86.846 15.0528 86.2546 13.603 84.9763 13.3932C88.2769 12.9354 91.2532 10.7416 91.2532 6.98359C91.2532 2.63422 87.5138 0.70752 83.7553 0.70752C81.4849 0.70752 79.2718 0.879206 76.9632 0.879206C75.6849 0.879206 74.3494 0.70752 73.0711 0.70752C72.6323 0.70752 72.3652 0.879207 72.3652 1.31796C72.3652 1.81394 72.9948 1.81394 73.3573 1.81394C76.1428 1.81394 75.933 2.59607 75.933 5.24766V22.1492Z" fill="black" fill-opacity="0.8"/>
<path d="M101.022 22.1479C101.022 24.7612 101.212 25.5815 98.446 25.5815C98.0835 25.5815 97.4539 25.5433 97.4539 26.0774C97.4539 26.5353 97.7782 26.6116 98.1216 26.6116H107.089C107.451 26.6116 107.756 26.5353 107.756 26.0774C107.756 25.5433 107.089 25.5815 106.726 25.5815C103.998 25.5433 104.151 24.7994 104.151 22.1479V5.1896C104.151 2.57623 103.96 1.79413 106.726 1.79413C107.089 1.79413 107.756 1.79413 107.756 1.26001C107.756 0.802197 107.432 0.687744 107.089 0.687744H98.1216C97.721 0.687744 97.4539 0.821272 97.4539 1.26001C97.4539 1.79413 98.0835 1.79413 98.446 1.79413C101.231 1.79413 101.022 2.57623 101.022 5.1896V22.1479Z" fill="black" fill-opacity="0.8"/>
<path d="M117.144 14.6312C119.834 15.8711 121.99 17.4926 121.99 20.7927C121.99 24.0547 119.052 26.1721 116.076 26.1721C112.47 26.1721 110.638 23.9402 110.238 20.373C110.2 20.0487 110.2 18.9996 109.685 18.9996C109.246 18.9996 109.131 19.4955 109.093 19.8198C108.979 20.8881 109.112 22.0517 109.112 23.1199C109.112 23.8639 108.864 24.8559 109.532 25.3137C111.192 26.3438 113.577 26.9351 115.523 26.9351C117.831 26.9351 120.082 26.3056 121.876 24.7796C123.574 23.2916 124.661 21.2314 124.661 18.9042C124.661 17.1301 123.898 15.2988 122.753 13.9826C121.8 12.9144 120.14 12.0369 118.823 11.4264C116.248 10.2628 111.879 8.81305 111.879 5.26494C111.879 2.25095 114.378 0.839339 116.992 0.839339C120.082 0.839339 121.284 2.36541 122.143 5.22679C122.257 5.51293 122.334 6.18058 122.773 6.18058C123.059 6.18058 123.211 5.97075 123.211 5.68461C123.173 4.61636 123.269 3.58626 123.23 2.51802C123.192 1.77406 123.097 1.22086 122.334 0.915642C120.865 0.305215 118.575 0 117.011 0C113.119 0 109.36 2.65155 109.36 6.98177C109.36 10.6634 112.222 12.3612 115.103 13.6774L117.144 14.6312Z" fill="black" fill-opacity="0.8"/>
<path d="M150.453 13.4684C150.453 16.5776 149.862 19.3434 147.992 21.8231C146.084 24.2646 143.394 25.7906 140.342 25.7906C137.327 25.7906 134.542 24.5126 132.653 22.1092C130.707 19.7058 130.001 16.5585 130.001 13.4684C130.001 10.4928 130.669 7.38364 132.5 5.03747C134.408 2.51964 137.251 1.14627 140.361 1.14627C143.337 1.14627 145.951 2.55779 147.859 4.90395C149.824 7.44086 150.453 10.283 150.453 13.4684ZM126.414 13.4684C126.414 21.0028 133.111 26.9541 140.265 26.9541C147.801 26.9541 154.078 21.4606 154.078 13.4684C154.078 5.49526 147.801 0.020874 140.265 0.020874C133.111 0.020874 126.414 5.95305 126.414 13.4684Z" fill="black" fill-opacity="0.8"/>
<path d="M150.453 13.4684C150.453 16.5776 149.862 19.3434 147.992 21.8231C146.084 24.2646 143.394 25.7906 140.342 25.7906C137.327 25.7906 134.542 24.5126 132.653 22.1092C130.707 19.7058 130.001 16.5585 130.001 13.4684C130.001 10.4928 130.669 7.38364 132.5 5.03747C134.408 2.51964 137.251 1.14627 140.361 1.14627C143.337 1.14627 145.951 2.55779 147.859 4.90395C149.824 7.44086 150.453 10.283 150.453 13.4684ZM126.414 13.4684C126.414 21.0028 133.111 26.9541 140.265 26.9541C147.801 26.9541 154.078 21.4606 154.078 13.4684C154.078 5.49526 147.801 0.020874 140.265 0.020874C133.111 0.020874 126.414 5.95305 126.414 13.4684Z" fill="black" fill-opacity="0.8"/>
<path d="M177.927 3.9695C177.812 2.59607 178.061 1.71859 176.706 1.18448C174.798 0.402383 172.337 0.020874 170.315 0.020874C162.702 0.020874 155.242 5.72445 155.242 14.0032C155.242 17.9709 156.902 21.1947 159.84 23.7126C162.626 26.078 165.945 26.9364 169.513 26.9364C172.413 26.9364 175.504 26.3069 177.965 24.6664C178.881 24.056 178.671 23.5982 178.671 22.5109V17.7611C178.671 17.1507 178.595 15.9489 179.11 15.4911C179.396 15.205 179.987 15.205 180.331 15.1668L181.094 15.0905C181.457 15.0905 181.857 15.0524 181.857 14.5564C181.857 14.1367 181.495 14.0604 181.189 14.0604H172.814C172.451 14.0604 171.898 14.0604 171.898 14.5946C171.898 15.1287 172.451 15.0905 172.852 15.0905C175.161 15.0905 175.542 15.453 175.542 17.7802V21.2138C175.542 22.2057 175.618 23.9797 174.798 24.6855C173.691 25.6393 171.631 25.8491 170.276 25.8491C166.861 25.8491 163.961 24.8953 161.71 22.1675C159.688 19.764 158.848 16.8836 158.848 13.7362C158.848 10.7604 159.84 7.25049 161.71 4.88513C163.732 2.27178 166.556 1.24171 169.685 1.24171C176.706 1.24171 175.962 6.58285 177.297 6.58285C177.736 6.58285 177.889 6.16319 177.889 5.7626L177.927 3.9695Z" fill="black" fill-opacity="0.8"/>
<path d="M207.257 13.4684C207.257 16.5776 206.666 19.3434 204.796 21.8231C202.888 24.2646 200.198 25.7906 197.146 25.7906C194.131 25.7906 191.346 24.5126 189.438 22.1092C187.492 19.7058 186.786 16.5585 186.786 13.4684C186.786 10.4928 187.454 7.38364 189.285 5.03747C191.193 2.51964 194.055 1.14627 197.146 1.14627C200.122 1.14627 202.736 2.55779 204.644 4.90395C206.628 7.44086 207.257 10.283 207.257 13.4684ZM183.218 13.4684C183.218 21.0028 189.915 26.9541 197.069 26.9541C204.605 26.9541 210.882 21.4606 210.882 13.4684C210.882 5.49526 204.605 0.020874 197.069 0.020874C189.934 0.020874 183.218 5.95305 183.218 13.4684Z" fill="black" fill-opacity="0.8"/>
<path d="M207.257 13.4684C207.257 16.5776 206.666 19.3434 204.796 21.8231C202.888 24.2646 200.198 25.7906 197.146 25.7906C194.131 25.7906 191.346 24.5126 189.438 22.1092C187.492 19.7058 186.786 16.5585 186.786 13.4684C186.786 10.4928 187.454 7.38364 189.285 5.03747C191.193 2.51964 194.055 1.14627 197.146 1.14627C200.122 1.14627 202.736 2.55779 204.644 4.90395C206.628 7.44086 207.257 10.283 207.257 13.4684ZM183.218 13.4684C183.218 21.0028 189.915 26.9541 197.069 26.9541C204.605 26.9541 210.882 21.4606 210.882 13.4684C210.882 5.49526 204.605 0.020874 197.069 0.020874C189.934 0.020874 183.218 5.95305 183.218 13.4684Z" fill="black" fill-opacity="0.8"/>
<path d="M232.324 21.118L218.282 2.13751C217.805 1.46985 217.481 0.897579 216.66 0.687744H211.738C211.299 0.687744 210.784 0.725895 210.784 1.3554C210.784 1.81322 211.413 1.81322 211.776 1.81322C214.561 1.81322 214.352 2.63348 214.352 5.24687V22.1672C214.352 24.7233 214.542 25.6008 211.776 25.6008C211.413 25.6008 210.746 25.4864 210.746 26.0205C210.746 26.4783 211.07 26.6309 211.452 26.6309H218.396C218.797 26.6309 219.064 26.4592 219.064 26.0205C219.064 25.4864 218.434 25.6008 218.072 25.6008C215.286 25.6008 215.496 24.7424 215.496 22.1672V3.47282L232.152 26.0586C232.343 26.3829 232.705 27.0506 233.144 27.0506C233.507 27.0506 233.43 26.4783 233.43 26.2685V5.24687C233.43 2.69071 233.278 1.81322 236.006 1.81322C236.407 1.81322 237.036 1.81322 237.036 1.3554C237.036 0.897577 236.712 0.687744 236.369 0.687744H229.424C229.023 0.687744 228.718 0.897577 228.718 1.3554C228.718 1.81322 229.348 1.81322 229.71 1.81322C232.496 1.81322 232.324 2.63348 232.324 5.24687V21.118Z" fill="black" fill-opacity="0.8"/>
<path d="M259.676 13.4684C259.676 16.5776 259.084 19.3434 257.215 21.8231C255.307 24.2646 252.617 25.7906 249.564 25.7906C246.55 25.7906 243.764 24.5126 241.875 22.1092C239.929 19.7058 239.223 16.5585 239.223 13.4684C239.223 10.4928 239.891 7.38364 241.723 5.03747C243.63 2.51964 246.473 1.14627 249.583 1.14627C252.559 1.14627 255.173 2.55779 257.081 4.90395C259.046 7.44086 259.676 10.283 259.676 13.4684ZM235.636 13.4684C235.636 21.0028 242.333 26.9541 249.488 26.9541C257.024 26.9541 263.301 21.4606 263.301 13.4684C263.301 5.49526 257.024 0.020874 249.488 0.020874C242.333 0.020874 235.636 5.95305 235.636 13.4684Z" fill="black" fill-opacity="0.8"/>
<path d="M259.676 13.4684C259.676 16.5776 259.084 19.3434 257.215 21.8231C255.307 24.2646 252.617 25.7906 249.564 25.7906C246.55 25.7906 243.764 24.5126 241.875 22.1092C239.929 19.7058 239.223 16.5585 239.223 13.4684C239.223 10.4928 239.891 7.38364 241.723 5.03747C243.63 2.51964 246.473 1.14627 249.583 1.14627C252.559 1.14627 255.173 2.55779 257.081 4.90395C259.046 7.44086 259.676 10.283 259.676 13.4684ZM235.636 13.4684C235.636 21.0028 242.333 26.9541 249.488 26.9541C257.024 26.9541 263.301 21.4606 263.301 13.4684C263.301 5.49526 257.024 0.020874 249.488 0.020874C242.333 0.020874 235.636 5.95305 235.636 13.4684Z" fill="black" fill-opacity="0.8"/>
<path d="M23.8165 15.4333C23.3967 15.4333 22.5382 15.5478 22.5382 14.9183C22.5382 14.2888 23.1296 13.0871 23.473 12.6484C24.5987 11.0079 26.4302 10.0351 28.3572 10.0351C29.5592 10.0351 30.7993 10.3403 31.6197 11.2559C32.1539 11.8472 32.5927 12.7437 32.5927 13.564C32.5927 14.4986 32.0203 14.9374 31.1999 15.1281C30.1124 15.3952 28.0138 15.4333 26.85 15.4333H23.8165ZM35.1492 16.3871C35.5308 16.3871 35.6071 16.0437 35.6071 15.7194C35.6071 14.4223 35.0348 12.7437 34.2907 11.7709C32.9743 10.0923 30.9137 9.34839 28.8914 9.34839C26.3349 9.34839 24.0072 10.2449 22.1375 11.9617C20.1533 13.7547 19.4283 15.8339 19.4283 18.4853C19.4283 23.3685 23.0724 27.4887 27.9756 27.4887C30.3032 27.4887 32.1348 26.8593 33.9091 25.2951C34.1762 25.0662 35.3782 23.998 35.3782 23.5402C35.3782 23.3876 35.2637 23.235 35.0729 23.235C34.5769 23.235 33.2032 25.772 29.521 25.772C24.9803 25.772 22.252 21.9761 22.252 17.5888C22.252 16.2917 22.6336 16.368 23.7974 16.368H35.1492V16.3871Z" fill="black" fill-opacity="0.8"/>
<path d="M23.8165 15.4333C23.3967 15.4333 22.5382 15.5478 22.5382 14.9183C22.5382 14.2888 23.1296 13.0871 23.473 12.6484C24.5987 11.0079 26.4302 10.0351 28.3572 10.0351C29.5592 10.0351 30.7993 10.3403 31.6197 11.2559C32.1539 11.8472 32.5927 12.7437 32.5927 13.564C32.5927 14.4986 32.0203 14.9374 31.1999 15.1281C30.1124 15.3952 28.0138 15.4333 26.85 15.4333H23.8165ZM35.1492 16.3871C35.5308 16.3871 35.6071 16.0437 35.6071 15.7194C35.6071 14.4223 35.0348 12.7437 34.2907 11.7709C32.9743 10.0923 30.9137 9.34839 28.8914 9.34839C26.3349 9.34839 24.0072 10.2449 22.1375 11.9617C20.1533 13.7547 19.4283 15.8339 19.4283 18.4853C19.4283 23.3685 23.0724 27.4887 27.9756 27.4887C30.3032 27.4887 32.1348 26.8593 33.9091 25.2951C34.1762 25.0662 35.3782 23.998 35.3782 23.5402C35.3782 23.3876 35.2637 23.235 35.0729 23.235C34.5769 23.235 33.2032 25.772 29.521 25.772C24.9803 25.772 22.252 21.9761 22.252 17.5888C22.252 16.2917 22.6336 16.368 23.7974 16.368H35.1492V16.3871Z" fill="black" fill-opacity="0.8"/>
<path d="M16.6176 0.687534C16.6176 0.382314 16.6176 0.286932 16.236 0.286932C15.9689 0.286932 12.5729 0.096169 11.5236 0.286932C11.2946 0.325085 11.142 0.668457 11.142 0.935525C11.142 1.45059 11.5617 1.62227 11.9051 1.58412C14.5762 1.31705 14.061 3.75882 14.061 5.20862V8.9285C14.061 9.15741 14.2137 10.3783 13.7558 10.3783C13.565 10.3783 13.2216 10.2257 13.0499 10.1494C11.8097 9.63432 10.417 9.40541 9.04332 9.3291C6.6394 9.21464 4.3118 10.4546 2.63287 12.1524C0.934858 13.8311 0 15.9867 0 18.4476C0 23.1403 3.33878 27.4897 8.10846 27.4897C11.142 27.4897 13.5841 25.6393 13.8893 24.8763C14.042 24.5138 14.0801 26.0209 14.0801 26.1735C14.1183 26.4024 14.2518 27.2227 14.6716 27.2227C14.9005 27.2227 19.0978 27.3371 19.2886 27.2227C19.2886 27.2227 19.632 26.803 19.6702 26.307C19.6702 26.307 19.1741 25.7729 18.907 25.7729H17.2663C16.5603 25.7729 16.6748 23.808 16.6748 23.3883L16.6176 0.687534ZM14.061 22.0148C14.061 22.797 14.1755 23.3502 13.6795 23.9797C12.6301 25.2769 10.7795 25.811 9.25319 25.811C5.09402 25.811 2.76642 21.7859 2.76642 17.8753C2.76642 13.9646 5.2085 10.4355 9.29135 10.054C10.5315 9.93954 12.2486 10.4164 13.1643 11.313C14.1373 12.2478 14.061 13.7357 14.061 14.9566V22.0148Z" fill="black" fill-opacity="0.8"/>
<path d="M16.6176 0.687534C16.6176 0.382314 16.6176 0.286932 16.236 0.286932C15.9689 0.286932 12.5729 0.096169 11.5236 0.286932C11.2946 0.325085 11.142 0.668457 11.142 0.935525C11.142 1.45059 11.5617 1.62227 11.9051 1.58412C14.5762 1.31705 14.061 3.75882 14.061 5.20862V8.9285C14.061 9.15741 14.2137 10.3783 13.7558 10.3783C13.565 10.3783 13.2216 10.2257 13.0499 10.1494C11.8097 9.63432 10.417 9.40541 9.04332 9.3291C6.6394 9.21464 4.3118 10.4546 2.63287 12.1524C0.934858 13.8311 0 15.9867 0 18.4476C0 23.1403 3.33878 27.4897 8.10846 27.4897C11.142 27.4897 13.5841 25.6393 13.8893 24.8763C14.042 24.5138 14.0801 26.0209 14.0801 26.1735C14.1183 26.4024 14.2518 27.2227 14.6716 27.2227C14.9005 27.2227 19.0978 27.3371 19.2886 27.2227C19.2886 27.2227 19.632 26.803 19.6702 26.307C19.6702 26.307 19.1741 25.7729 18.907 25.7729H17.2663C16.5603 25.7729 16.6748 23.808 16.6748 23.3883L16.6176 0.687534ZM14.061 22.0148C14.061 22.797 14.1755 23.3502 13.6795 23.9797C12.6301 25.2769 10.7795 25.811 9.25319 25.811C5.09402 25.811 2.76642 21.7859 2.76642 17.8753C2.76642 13.9646 5.2085 10.4355 9.29135 10.054C10.5315 9.93954 12.2486 10.4164 13.1643 11.313C14.1373 12.2478 14.061 13.7357 14.061 14.9566V22.0148Z" fill="black" fill-opacity="0.8"/>
</svg>
