<svg width="13" height="13" viewBox="0 0 13 13" fill="none" xmlns="http://www.w3.org/2000/svg">
<path d="M0 12.8353C0 12.9264 0.0736156 13 0.164689 13H12.7325C12.8236 13 12.8972 12.9264 12.8972 12.8353C12.8972 12.7442 12.8236 12.6706 12.7325 12.6706H12.0233V4.13479H12.1653C12.2563 4.13479 12.33 4.06118 12.33 3.9701V2.86138C12.33 2.77031 12.2563 2.69669 12.1653 2.69669L11.5308 2.69681V2.13511C11.5308 2.04404 11.4571 1.97042 11.3661 1.97042H10.577C10.4859 1.97042 10.4123 2.04404 10.4123 2.13511V2.69681H8.18186V2.20285H8.35149C8.44256 2.20285 8.51618 2.12924 8.51618 2.03816V0.929677C8.51618 0.838603 8.44256 0.764988 8.35149 0.764988H8.20942V0.16469C8.20942 0.0736159 8.13581 0 8.04474 0L4.20327 0.000114845C4.1122 0.000114845 4.03859 0.0737307 4.03859 0.164804V0.765103H3.89652C3.80545 0.765103 3.73183 0.838718 3.73183 0.929792V2.03828C3.73183 2.12935 3.80545 2.20297 3.89652 2.20297H4.03859V12.6707H2.91552V12.1764C3.23331 12.1015 3.47113 11.8172 3.47113 11.4769V11.0523C3.47113 10.6552 3.14796 10.332 2.75082 10.332C2.35368 10.332 2.03051 10.6552 2.03051 11.0523V11.4769C2.03051 11.8172 2.26847 12.1015 2.58612 12.1764V12.6707H1.20729V11.7709C1.52508 11.696 1.7629 11.4117 1.7629 11.0714V10.153C1.7629 9.75582 1.43973 9.43265 1.04259 9.43265C0.645451 9.43265 0.322281 9.75582 0.322281 10.153V11.0714C0.322281 11.4117 0.560243 11.696 0.877891 11.7709V12.6707H0.164343C0.073501 12.6706 0 12.7442 0 12.8353V12.8353ZM7.8802 0.764961H4.36802V0.329364H7.8802V0.764961ZM11.2016 2.69689H10.7417V2.29975H11.2016V2.69689ZM8.18185 4.13487H11.694V12.6707H8.18185V4.13487ZM7.8752 3.02615H12.0007V3.80561H7.8752V3.02615ZM4.36802 2.20294H7.85256V2.69689H7.7105C7.61943 2.69689 7.54581 2.77051 7.54581 2.86158V3.9703C7.54581 4.06138 7.61943 4.13499 7.7105 4.13499H7.85256V12.6708L4.36802 12.6707V2.20294ZM4.06126 1.09433H8.18702V1.87356H4.06126V1.09433ZM2.75112 11.8681C2.53544 11.8681 2.36006 11.6928 2.36006 11.4771V11.0525C2.36006 10.8368 2.53543 10.6614 2.75112 10.6614C2.9668 10.6614 3.14217 10.8368 3.14217 11.0525V11.4771C3.14206 11.6926 2.9668 11.8681 2.75112 11.8681ZM1.04289 11.4626C0.827214 11.4626 0.651837 11.2872 0.651837 11.0715V10.1531C0.651837 9.93746 0.827205 9.76208 1.04289 9.76208C1.25858 9.76208 1.43395 9.93745 1.43395 10.1531V11.0715C1.43395 11.2872 1.25858 11.4626 1.04289 11.4626Z" fill="black"/>
<path d="M7.13149 6.0668C7.04041 6.0668 6.9668 5.99319 6.9668 5.90211V5.16469C6.9668 5.07362 7.04041 5 7.13149 5C7.22256 5 7.29618 5.07362 7.29618 5.16469V5.90211C7.29618 5.99319 7.22256 6.0668 7.13149 6.0668Z" fill="black"/>
<path d="M6.09828 6.0668C6.00721 6.0668 5.93359 5.99319 5.93359 5.90211V5.16469C5.93359 5.07362 6.00721 5 6.09828 5C6.18936 5 6.26297 5.07362 6.26297 5.16469V5.90211C6.26286 5.99319 6.18924 6.0668 6.09828 6.0668Z" fill="black"/>
<path d="M5.06508 6.0668C4.97401 6.0668 4.90039 5.99319 4.90039 5.90211V5.16469C4.90039 5.07362 4.97401 5 5.06508 5C5.15615 5 5.22977 5.07362 5.22977 5.16469V5.90211C5.22966 5.99319 5.15592 6.0668 5.06508 6.0668Z" fill="black"/>
<path d="M7.13149 8.01211C7.04041 8.01211 6.9668 7.9385 6.9668 7.84742V7.11C6.9668 7.01893 7.04041 6.94531 7.13149 6.94531C7.22256 6.94531 7.29618 7.01893 7.29618 7.11V7.84742C7.29618 7.9385 7.22256 8.01211 7.13149 8.01211Z" fill="black"/>
<path d="M6.09828 8.01211C6.00721 8.01211 5.93359 7.9385 5.93359 7.84742V7.11C5.93359 7.01893 6.00721 6.94531 6.09828 6.94531C6.18936 6.94531 6.26297 7.01893 6.26297 7.11V7.84742C6.26286 7.9385 6.18924 8.01211 6.09828 8.01211Z" fill="black"/>
<path d="M5.06508 8.01211C4.97401 8.01211 4.90039 7.9385 4.90039 7.84742V7.11C4.90039 7.01893 4.97401 6.94531 5.06508 6.94531C5.15615 6.94531 5.22977 7.01893 5.22977 7.11V7.84742C5.22966 7.9385 5.15592 8.01211 5.06508 8.01211Z" fill="black"/>
<path d="M7.13149 4.13711C7.04041 4.13711 6.9668 4.0635 6.9668 3.97242V3.235C6.9668 3.14393 7.04041 3.07031 7.13149 3.07031C7.22256 3.07031 7.29618 3.14393 7.29618 3.235V3.97242C7.29618 4.0635 7.22256 4.13711 7.13149 4.13711Z" fill="black"/>
<path d="M6.09828 4.13711C6.00721 4.13711 5.93359 4.0635 5.93359 3.97242V3.235C5.93359 3.14393 6.00721 3.07031 6.09828 3.07031C6.18936 3.07031 6.26297 3.14393 6.26297 3.235V3.97242C6.26286 4.0635 6.18924 4.13711 6.09828 4.13711Z" fill="black"/>
<path d="M5.06508 4.13711C4.97401 4.13711 4.90039 4.0635 4.90039 3.97242V3.235C4.90039 3.14393 4.97401 3.07031 5.06508 3.07031C5.15615 3.07031 5.22977 3.14393 5.22977 3.235V3.97242C5.22966 4.0635 5.15592 4.13711 5.06508 4.13711Z" fill="black"/>
<path d="M7.13149 9.95352C7.04041 9.95352 6.9668 9.8799 6.9668 9.78883V9.05141C6.9668 8.96033 7.04041 8.88672 7.13149 8.88672C7.22256 8.88672 7.29618 8.96033 7.29618 9.05141V9.78883C7.29618 9.8799 7.22256 9.95352 7.13149 9.95352Z" fill="black"/>
<path d="M6.09828 9.95352C6.00721 9.95352 5.93359 9.8799 5.93359 9.78883V9.05141C5.93359 8.96033 6.00721 8.88672 6.09828 8.88672C6.18936 8.88672 6.26297 8.96033 6.26297 9.05141V9.78883C6.26286 9.8799 6.18924 9.95352 6.09828 9.95352Z" fill="black"/>
<path d="M5.06508 9.95352C4.97401 9.95352 4.90039 9.8799 4.90039 9.78883V9.05141C4.90039 8.96033 4.97401 8.88672 5.06508 8.88672C5.15615 8.88672 5.22977 8.96033 5.22977 9.05141V9.78883C5.22966 9.8799 5.15592 9.95352 5.06508 9.95352Z" fill="black"/>
<path d="M7.13149 11.8949C7.04041 11.8949 6.9668 11.8213 6.9668 11.7302V10.9928C6.9668 10.9017 7.04041 10.8281 7.13149 10.8281C7.22256 10.8281 7.29618 10.9017 7.29618 10.9928V11.7302C7.29618 11.8213 7.22256 11.8949 7.13149 11.8949Z" fill="black"/>
<path d="M6.09828 11.8949C6.00721 11.8949 5.93359 11.8213 5.93359 11.7302V10.9928C5.93359 10.9017 6.00721 10.8281 6.09828 10.8281C6.18936 10.8281 6.26297 10.9017 6.26297 10.9928V11.7302C6.26286 11.8213 6.18924 11.8949 6.09828 11.8949Z" fill="black"/>
<path d="M5.06508 11.8949C4.97401 11.8949 4.90039 11.8213 4.90039 11.7302V10.9928C4.90039 10.9017 4.97401 10.8281 5.06508 10.8281C5.15615 10.8281 5.22977 10.9017 5.22977 10.9928V11.7302C5.22966 11.8213 5.15592 11.8949 5.06508 11.8949Z" fill="black"/>
<path d="M10.9713 6.0668C10.8803 6.0668 10.8066 5.99319 10.8066 5.90211V5.16469C10.8066 5.07362 10.8803 5 10.9713 5C11.0624 5 11.136 5.07362 11.136 5.16469V5.90211C11.136 5.99319 11.0623 6.0668 10.9713 6.0668Z" fill="black"/>
<path d="M9.93813 6.0668C9.84705 6.0668 9.77344 5.99319 9.77344 5.90211V5.16469C9.77344 5.07362 9.84705 5 9.93813 5C10.0292 5 10.1028 5.07362 10.1028 5.16469V5.90211C10.1028 5.99319 10.0292 6.0668 9.93813 6.0668Z" fill="black"/>
<path d="M8.90297 6.0668C8.8119 6.0668 8.73828 5.99319 8.73828 5.90211V5.16469C8.73828 5.07362 8.8119 5 8.90297 5C8.99404 5 9.06766 5.07362 9.06766 5.16469V5.90211C9.06766 5.99319 8.99404 6.0668 8.90297 6.0668Z" fill="black"/>
<path d="M10.9713 8.01211C10.8803 8.01211 10.8066 7.9385 10.8066 7.84742V7.11C10.8066 7.01893 10.8803 6.94531 10.9713 6.94531C11.0624 6.94531 11.136 7.01893 11.136 7.11V7.84742C11.136 7.9385 11.0623 8.01211 10.9713 8.01211Z" fill="black"/>
<path d="M9.93813 8.01211C9.84705 8.01211 9.77344 7.9385 9.77344 7.84742V7.11C9.77344 7.01893 9.84705 6.94531 9.93813 6.94531C10.0292 6.94531 10.1028 7.01893 10.1028 7.11V7.84742C10.1028 7.9385 10.0292 8.01211 9.93813 8.01211Z" fill="black"/>
<path d="M8.90297 8.01211C8.8119 8.01211 8.73828 7.9385 8.73828 7.84742V7.11C8.73828 7.01893 8.8119 6.94531 8.90297 6.94531C8.99404 6.94531 9.06766 7.01893 9.06766 7.11V7.84742C9.06766 7.9385 8.99404 8.01211 8.90297 8.01211Z" fill="black"/>
<path d="M10.9713 9.95352C10.8803 9.95352 10.8066 9.8799 10.8066 9.78883V9.05141C10.8066 8.96033 10.8803 8.88672 10.9713 8.88672C11.0624 8.88672 11.136 8.96033 11.136 9.05141V9.78883C11.136 9.8799 11.0623 9.95352 10.9713 9.95352Z" fill="black"/>
<path d="M9.93813 9.95352C9.84705 9.95352 9.77344 9.8799 9.77344 9.78883V9.05141C9.77344 8.96033 9.84705 8.88672 9.93813 8.88672C10.0292 8.88672 10.1028 8.96033 10.1028 9.05141V9.78883C10.1028 9.8799 10.0292 9.95352 9.93813 9.95352Z" fill="black"/>
<path d="M8.90297 9.95352C8.8119 9.95352 8.73828 9.8799 8.73828 9.78883V9.05141C8.73828 8.96033 8.8119 8.88672 8.90297 8.88672C8.99404 8.88672 9.06766 8.96033 9.06766 9.05141V9.78883C9.06766 9.8799 8.99404 9.95352 8.90297 9.95352Z" fill="black"/>
<path d="M10.9713 11.8949C10.8803 11.8949 10.8066 11.8213 10.8066 11.7302V10.9928C10.8066 10.9017 10.8803 10.8281 10.9713 10.8281C11.0624 10.8281 11.136 10.9017 11.136 10.9928V11.7302C11.136 11.8213 11.0623 11.8949 10.9713 11.8949Z" fill="black"/>
<path d="M9.93813 11.8949C9.84705 11.8949 9.77344 11.8213 9.77344 11.7302V10.9928C9.77344 10.9017 9.84705 10.8281 9.93813 10.8281C10.0292 10.8281 10.1028 10.9017 10.1028 10.9928V11.7302C10.1028 11.8213 10.0292 11.8949 9.93813 11.8949Z" fill="black"/>
<path d="M8.90297 11.8949C8.8119 11.8949 8.73828 11.8213 8.73828 11.7302V10.9928C8.73828 10.9017 8.8119 10.8281 8.90297 10.8281C8.99404 10.8281 9.06766 10.9017 9.06766 10.9928V11.7302C9.06766 11.8213 8.99404 11.8949 8.90297 11.8949Z" fill="black"/>
</svg>
