<svg width="15" height="16" viewBox="0 0 15 16" fill="none" xmlns="http://www.w3.org/2000/svg">
<mask id="mask0_101_1354" style="mask-type:alpha" maskUnits="userSpaceOnUse" x="0" y="0" width="15" height="16">
<rect y="0.5" width="15" height="15" fill="#D9D9D9"/>
</mask>
<g mask="url(#mask0_101_1354)">
<path d="M3.40234 12.9014C3.24609 12.9118 3.06901 12.8597 2.87109 12.7452C2.67318 12.6306 2.57422 12.4327 2.57422 12.1514V10.5312C2.57422 10.3361 2.62931 10.1673 2.73948 10.0249C2.84966 9.88249 2.9993 9.78846 3.18841 9.74278L4.44163 9.46234C4.55484 9.44097 4.66794 9.4413 4.78092 9.46334C4.8939 9.48538 5.00648 9.55248 5.11866 9.66466L6.59341 11.1166C7.4572 10.655 8.21782 10.0965 8.87527 9.44109C9.53272 8.78565 10.1083 8.01802 10.6018 7.1382L9.16434 5.73316C9.073 5.63941 9.00709 5.52963 8.96663 5.40383C8.92617 5.27803 8.91835 5.14862 8.94319 5.01561L9.27011 3.67669C9.3198 3.48758 9.41274 3.33794 9.54895 3.22777C9.68517 3.11759 9.84984 3.0625 10.043 3.0625H11.6751C11.8983 3.0625 12.0844 3.14323 12.2332 3.30469C12.382 3.46615 12.446 3.65625 12.4251 3.875C12.3314 5.02804 12.0237 6.1292 11.502 7.17847C10.9804 8.22774 10.314 9.16062 9.50266 9.97712C8.69136 10.7936 7.76108 11.4591 6.71181 11.9735C5.66254 12.4879 4.55939 12.7972 3.40234 12.9014ZM10.9732 6.34495C11.1351 5.94832 11.2699 5.55048 11.3777 5.15144C11.4855 4.7524 11.5554 4.35496 11.5874 3.95913C11.5874 3.93508 11.5794 3.91505 11.5634 3.89903C11.5473 3.883 11.5273 3.87498 11.5033 3.87498H10.1511C10.1191 3.87498 10.093 3.883 10.073 3.89903C10.053 3.91505 10.0389 3.93909 10.0309 3.97114L9.75928 5.07091C9.75126 5.09494 9.75026 5.12098 9.75627 5.14903C9.76228 5.17707 9.7753 5.19911 9.79533 5.21514L10.9732 6.34495ZM5.77853 11.4916L4.61867 10.3197C4.59864 10.2997 4.57961 10.2866 4.56158 10.2806C4.54355 10.2746 4.52251 10.2756 4.49847 10.2836L3.48286 10.5036C3.4508 10.5116 3.42676 10.5256 3.41073 10.5456C3.3947 10.5657 3.38669 10.5917 3.38669 10.6238V11.9699C3.3971 11.994 3.40772 12.014 3.41855 12.03C3.42936 12.0461 3.44679 12.0541 3.47083 12.0541C3.82019 12.014 4.19874 11.9513 4.60647 11.8661C5.01421 11.7808 5.4049 11.656 5.77853 11.4916Z" fill="#555555"/>
</g>
</svg>
