<svg width="16" height="12" viewBox="0 0 16 12" fill="none" xmlns="http://www.w3.org/2000/svg">
<path d="M0.749155 11.7913C0.489544 11.7913 0.323683 11.6588 0.251572 11.3939C0.179461 11.1289 0.242225 10.9286 0.439864 10.7929L7.45751 5.87465V4.24965C7.45751 4.10008 7.51173 3.97242 7.62016 3.86665C7.7286 3.76089 7.85493 3.70801 7.99916 3.70801C8.33035 3.7219 8.61455 3.60678 8.85174 3.36265C9.08892 3.11851 9.20751 2.83085 9.20751 2.49965C9.20751 2.16846 9.08892 1.88426 8.85174 1.64707C8.61455 1.40989 8.33035 1.2913 7.99916 1.2913C7.66796 1.2913 7.38377 1.40989 7.14657 1.64707C6.90939 1.88426 6.7908 2.16846 6.7908 2.49965H5.70751C5.70751 1.85863 5.9292 1.31643 6.37257 0.87307C6.81593 0.429695 7.35813 0.208008 7.99916 0.208008C8.64018 0.208008 9.18238 0.431028 9.62574 0.87707C10.0691 1.32311 10.2908 1.86397 10.2908 2.49965C10.2908 3.03918 10.1297 3.51915 9.80764 3.93955C9.48552 4.35995 9.06325 4.6225 8.5408 4.7272V5.87465L15.5584 10.8138C15.77 10.9633 15.8362 11.1636 15.7572 11.4147C15.6781 11.6658 15.5088 11.7913 15.2492 11.7913H0.749155ZM2.49911 10.708H13.4992L7.99916 6.81855L2.49911 10.708Z" fill="#1C1B1F"/>
</svg>
