<svg width="14" height="14" viewBox="0 0 14 14" fill="none" xmlns="http://www.w3.org/2000/svg">
<path d="M6.24596 7.65349C6.43051 7.65349 6.58636 7.59005 6.7135 7.46317C6.84062 7.33629 6.90419 7.18324 6.90419 7.00405C6.90419 6.81949 6.84208 6.66365 6.71788 6.53651C6.59367 6.40938 6.43929 6.34582 6.25475 6.34582C6.07554 6.34582 5.92103 6.40792 5.79123 6.53213C5.66142 6.65634 5.59652 6.81072 5.59652 6.99526C5.59652 7.17447 5.65996 7.32897 5.78683 7.45878C5.91372 7.58858 6.06676 7.65349 6.24596 7.65349ZM3.00035 13.5621V12.4997L8.41704 11.6279V3.13586C8.41704 2.84739 8.3241 2.59311 8.13821 2.37303C7.95231 2.15295 7.71458 2.02207 7.42504 1.9804L3.25679 1.2913V0.208008L7.66544 0.88107C8.19791 0.966404 8.63685 1.22149 8.98225 1.64632C9.32765 2.07114 9.50035 2.56765 9.50035 3.13586V12.4948L3.00035 13.5621ZM0.609375 13.583V12.4997H1.91704V1.54774C1.91704 1.17381 2.0479 0.857035 2.3096 0.597424C2.5713 0.337813 2.88703 0.208008 3.25679 0.208008H10.7439C11.1178 0.208008 11.4346 0.337813 11.6942 0.597424C11.9539 0.857035 12.0837 1.17381 12.0837 1.54774V12.4997H13.3913V13.583H0.609375ZM3.00035 12.4997H11.0004V1.54774C11.0004 1.47295 10.9763 1.41151 10.9282 1.36342C10.8801 1.31534 10.8187 1.2913 10.7439 1.2913H3.25679C3.182 1.2913 3.12056 1.31534 3.07248 1.36342C3.0244 1.41151 3.00035 1.47295 3.00035 1.54774V12.4997Z" fill="#1C1B1F"/>
</svg>
