<svg width="13" height="13" viewBox="0 0 13 13" fill="none" xmlns="http://www.w3.org/2000/svg">
<path d="M11.5141 4.8598L11.0201 4.36581L11.579 3.80694C11.619 3.76687 11.6391 3.72179 11.6391 3.6717C11.6391 3.62162 11.619 3.57655 11.579 3.53648L9.46241 1.41992C9.42235 1.37985 9.37727 1.35981 9.32719 1.35981C9.27711 1.35981 9.23203 1.37985 9.19195 1.41992L8.63308 1.9788L8.12347 1.4692L8.53213 1.04492C8.74366 0.833391 9.00447 0.730229 9.31456 0.735437C9.62466 0.740646 9.88547 0.849016 10.097 1.06055L11.9383 2.90189C12.1499 3.11342 12.2556 3.37163 12.2556 3.67652C12.2556 3.9814 12.1499 4.23961 11.9383 4.45114L11.5141 4.8598ZM4.46481 11.9247C4.25328 12.1362 3.99507 12.242 3.69019 12.242C3.3853 12.242 3.12709 12.1362 2.91556 11.9247L0.939609 9.94872C0.766537 9.77171 0.68 9.55739 0.68 9.30575C0.68 9.05412 0.766537 8.84176 0.939609 8.66869L1.48288 8.12542L1.99247 8.61941L1.43961 9.17828C1.39954 9.21836 1.3795 9.26343 1.3795 9.31352C1.3795 9.3636 1.39954 9.40867 1.43961 9.44874L3.55016 11.5593C3.59022 11.5994 3.63529 11.6194 3.68538 11.6194C3.73546 11.6194 3.78054 11.5994 3.82061 11.5593L4.37949 11.0064L4.87347 11.516L4.46481 11.9247ZM10.6078 7.4908L11.7256 6.37303C11.7657 6.33296 11.7857 6.28688 11.7857 6.2348C11.7857 6.18271 11.7657 6.13664 11.7256 6.09656L6.90233 1.27328C6.86226 1.23321 6.81618 1.21317 6.76409 1.21317C6.71201 1.21317 6.66593 1.23321 6.62586 1.27328L5.50809 2.39105C5.46802 2.43111 5.44799 2.47618 5.44799 2.52627C5.44799 2.57636 5.46802 2.62144 5.50809 2.6615L10.3374 7.4908C10.3775 7.53087 10.4225 7.55091 10.4726 7.55091C10.5227 7.55091 10.5678 7.53087 10.6078 7.4908ZM6.37108 11.7276L7.50447 10.6002C7.54454 10.5601 7.56458 10.515 7.56458 10.465C7.56458 10.4149 7.54454 10.3698 7.50447 10.3297L2.66916 5.49442C2.62909 5.45435 2.58402 5.43431 2.53394 5.43431C2.48385 5.43431 2.43878 5.45435 2.3987 5.49442L1.27133 6.62781C1.23126 6.66789 1.21122 6.71396 1.21122 6.76605C1.21122 6.81813 1.23126 6.86421 1.27133 6.90428L6.09461 11.7276C6.13468 11.7676 6.18076 11.7877 6.23284 11.7877C6.28493 11.7877 6.33101 11.7676 6.37108 11.7276ZM6.27731 8.09297L8.10064 6.26364L6.73525 4.89825L4.90592 6.72158L6.27731 8.09297ZM6.86505 12.2276C6.69266 12.4006 6.4821 12.4872 6.23336 12.4872C5.98462 12.4872 5.77571 12.4006 5.60664 12.2276L0.771328 7.39225C0.598255 7.22387 0.511719 7.0153 0.511719 6.76656C0.511719 6.51782 0.598255 6.30692 0.771328 6.13384L1.88911 5.00044C2.06612 4.82737 2.28044 4.74083 2.53208 4.74083C2.78371 4.74083 2.99607 4.82737 3.16916 5.00044L4.39631 6.22761L6.23527 4.38866L5.00809 3.15548C4.83502 2.9871 4.74849 2.77753 4.74849 2.52678C4.74849 2.27604 4.83502 2.06414 5.00809 1.89106L6.13189 0.757656C6.3089 0.584583 6.52322 0.498047 6.77486 0.498047C7.0265 0.498047 7.23885 0.584583 7.41192 0.757656L12.2412 5.58697C12.4143 5.76398 12.5008 5.9783 12.5008 6.22994C12.5008 6.48157 12.4143 6.69393 12.2412 6.867L11.1078 7.9908C10.9354 8.16387 10.7239 8.25041 10.4731 8.25041C10.2224 8.25041 10.0125 8.16387 9.84341 7.9908L8.61024 6.76363L6.77128 8.60258L7.99845 9.82973C8.17153 10.0068 8.25806 10.2211 8.25806 10.4727C8.25806 10.7244 8.17153 10.9367 7.99845 11.1098L6.86505 12.2276Z" fill="black"/>
</svg>
