<svg width="20" height="20" viewBox="0 0 20 20" fill="none" xmlns="http://www.w3.org/2000/svg">
<path d="M16.6667 0H3.33333C1.4925 0 0 1.4925 0 3.33333V16.6667C0 18.5075 1.4925 20 3.33333 20H10.4167V12.9167H7.91667V10H10.4167V7.91667C10.4167 5 12.0833 3.33333 14.5833 3.33333C15.8888 3.33333 16.6667 3.75 16.6667 3.75V6.25H15C13.8083 6.25 13.3333 7.12208 13.3333 7.91667V10H16.25L15.8333 12.9167H13.3333V20H16.6667C18.5075 20 20 18.5075 20 16.6667V3.33333C20 1.4925 18.5075 0 16.6667 0Z" fill="white"/>
</svg>
