<svg width="9" height="13" viewBox="0 0 9 13" fill="none" xmlns="http://www.w3.org/2000/svg">
<path d="M3.95702 11.3152C3.86327 11.0225 3.73827 10.7456 3.58202 10.4844C3.42577 10.2231 3.24347 9.988 3.03514 9.77897C2.82681 9.56993 2.59243 9.38828 2.33202 9.23403C2.0716 9.07979 1.79556 8.9558 1.50389 8.86205C1.52472 9.19538 1.60285 9.50528 1.73827 9.79173C1.87368 10.0782 2.05077 10.3308 2.26952 10.5495C2.48827 10.7683 2.74103 10.9442 3.02781 11.0772C3.3146 11.2102 3.62434 11.2896 3.95702 11.3152ZM5.03511 11.3152C5.36844 11.2983 5.6789 11.2222 5.96647 11.0868C6.25403 10.9514 6.50764 10.7743 6.72728 10.5555C6.94692 10.3368 7.12444 10.0832 7.25986 9.79473C7.39528 9.50628 7.4714 9.19538 7.48823 8.86205C7.19752 8.9558 6.92237 9.0808 6.66278 9.23705C6.40319 9.3933 6.16957 9.57559 5.96194 9.78392C5.7543 9.99226 5.5716 10.2266 5.41384 10.487C5.25607 10.7475 5.12983 11.0235 5.03511 11.3152ZM4.49906 6.30556C5.21621 6.30556 5.82298 6.05737 6.31938 5.56098C6.81577 5.06459 7.06397 4.45782 7.06397 3.74067V2.35723L5.79834 3.20098L4.49906 1.84161L3.19978 3.20098L1.93416 2.35723V3.74067C1.93416 4.45782 2.18235 5.06459 2.67875 5.56098C3.17515 6.05737 3.78192 6.30556 4.49906 6.30556ZM4.12889 12.1276C3.17404 12.1276 2.36241 11.7934 1.694 11.125C1.0256 10.4567 0.691406 9.64503 0.691406 8.69017V7.91375C1.39093 7.96984 2.02775 8.16396 2.60186 8.49609C3.17597 8.82823 3.67296 9.28796 4.09283 9.8753V7.1517C3.24719 7.03895 2.54059 6.66021 1.97303 6.01547C1.40547 5.37073 1.12169 4.61246 1.12169 3.74067V1.84767C1.12169 1.64255 1.21063 1.49391 1.38852 1.40175C1.56639 1.3096 1.73706 1.31802 1.90053 1.427L3.09522 2.19261L4.15052 1.10127C4.25452 0.994693 4.37106 0.941406 4.50014 0.941406C4.62922 0.941406 4.74505 0.994693 4.84761 1.10127L5.90291 2.19261L7.09759 1.427C7.26106 1.31802 7.43174 1.3096 7.60961 1.40175C7.7875 1.49391 7.87644 1.64255 7.87644 1.84767V3.74067C7.87644 4.61246 7.59266 5.37073 7.02509 6.01547C6.45753 6.66021 5.75093 7.03895 4.9053 7.1517V9.8693C5.32516 9.28596 5.82115 8.82823 6.39327 8.49609C6.96538 8.16396 7.59919 7.96984 8.2947 7.91375V8.69017C8.2947 9.64503 7.96109 10.4567 7.29386 11.125C6.62663 11.7934 5.81642 12.1276 4.86323 12.1276H4.12889Z" fill="#1C1B1F"/>
</svg>
