<svg width="12" height="13" viewBox="0 0 12 13" fill="none" xmlns="http://www.w3.org/2000/svg">
<path fill-rule="evenodd" clip-rule="evenodd" d="M5.56982 6.12996C5.9458 6.12996 6.25158 5.82418 6.25158 5.4482C6.25158 5.07223 5.9458 4.76644 5.56982 4.76644C5.19385 4.76644 4.88806 5.07223 4.88806 5.4482C4.88806 5.82407 5.19385 6.12996 5.56982 6.12996ZM5.56982 5.24455C5.68207 5.24455 5.77339 5.33587 5.77339 5.44812C5.77339 5.56036 5.68207 5.65168 5.56982 5.65168C5.45758 5.65168 5.36626 5.56036 5.36626 5.44812C5.36626 5.33587 5.45758 5.24455 5.56982 5.24455ZM5.01787 7.12479C5.52678 7.41847 6.14468 7.43253 6.66318 7.16991L7.73986 7.7916C7.79827 7.82528 7.86845 7.8328 7.93253 7.81209L8.22785 7.71707L8.29324 8.02045C8.3074 8.08638 8.34892 8.14327 8.40744 8.17716C8.46586 8.21083 8.53582 8.21835 8.60011 8.19765L8.89543 8.10262L8.96082 8.40601C8.97499 8.47205 9.01651 8.52882 9.07503 8.56271L9.30202 8.6937C9.33864 8.71484 9.37994 8.72574 9.42167 8.72574C9.43955 8.72574 9.45753 8.72378 9.47518 8.71974L10.4838 8.48785C10.5485 8.47303 10.6042 8.43183 10.6373 8.3744C10.6705 8.31697 10.6783 8.24832 10.6588 8.18479L10.3554 7.19476C10.3376 7.137 10.2987 7.08796 10.2463 7.05778L7.60734 5.5341C7.57563 4.9538 7.25449 4.4255 6.74578 4.1318C5.92074 3.65547 4.86183 3.93913 4.38529 4.76418C3.90896 5.58933 4.19271 6.64824 5.01787 7.12479ZM4.79949 5.00338C5.14396 4.40662 5.90983 4.20143 6.50679 4.54591C6.90553 4.77618 7.14483 5.20544 7.13133 5.66617C7.12871 5.754 7.17459 5.83628 7.25076 5.88019L9.92578 7.42469L10.1264 8.07874L9.4597 8.23207L9.40598 8.20101L9.30735 7.74344C9.29319 7.6774 9.25167 7.62062 9.19315 7.58673C9.13474 7.55306 9.06477 7.54554 9.00048 7.56625L8.70516 7.66127L8.63977 7.35788C8.62561 7.29195 8.58409 7.23507 8.52556 7.20118C8.46715 7.16751 8.39719 7.15998 8.3329 7.18069L7.88718 7.3241L6.78478 6.6877C6.70861 6.64379 6.61456 6.64509 6.5397 6.6913C6.1474 6.93344 5.6559 6.94074 5.25716 6.7107C4.6601 6.36611 4.4549 5.60011 4.79949 5.00338ZM9.888 9.46587L7.48487 10.1196C7.40706 10.1408 7.33057 10.1539 7.25439 10.1592C7.28469 10.1218 7.3128 10.0807 7.33841 10.0365C7.56377 9.64624 7.43213 9.1406 7.03885 8.88559C7.0297 8.8797 7.02043 8.87447 7.01073 8.87001C6.44592 8.60389 5.9152 8.23403 5.48867 7.93686C5.33981 7.83301 5.19901 7.73493 5.07763 7.65616C4.57558 7.33031 4.02472 7.41674 3.55197 7.54424L1.81261 8.01306L1.76586 7.83259C1.68903 7.53574 1.3852 7.35691 1.08837 7.43374L0.416652 7.60756C0.120017 7.68439 -0.0590291 7.98822 0.0178008 8.28505L0.920649 11.7739C0.9577 11.9173 1.04869 12.0379 1.17696 12.1134C1.26381 12.1645 1.36047 12.1906 1.45844 12.1906C1.50498 12.1906 1.55184 12.1848 1.59804 12.1728L2.26976 11.9989C2.41317 11.9619 2.53369 11.8709 2.60922 11.7426C2.68473 11.6144 2.70587 11.4649 2.66861 11.3214L2.56933 10.9382L2.91107 10.8465L5.36508 12.2633C5.63817 12.421 5.92914 12.5006 6.22447 12.5006C6.38749 12.5006 6.55193 12.4763 6.71541 12.4274L11.1104 11.1153C11.5348 10.9885 11.8024 10.4559 11.6717 9.99772C11.6091 9.77672 11.2934 9.08356 9.888 9.46587ZM2.19748 11.5002C2.19127 11.5107 2.17699 11.5293 2.15029 11.5362L1.47858 11.71C1.45188 11.7169 1.43019 11.7076 1.41984 11.7014C1.40938 11.6952 1.39074 11.6809 1.38388 11.6542L0.480694 8.16505C0.470123 8.12419 0.495623 8.08071 0.536489 8.07014L1.20809 7.89632C1.21474 7.89458 1.22106 7.89392 1.22716 7.89392C1.24493 7.89392 1.25909 7.90024 1.26705 7.90504C1.27751 7.91125 1.29615 7.92553 1.30301 7.95222L2.20586 11.4414C2.21284 11.468 2.20358 11.4896 2.19748 11.5002ZM10.974 10.6576L6.57907 11.9698C6.24366 12.0698 5.91595 12.0295 5.60438 11.8497L3.06473 10.3832C3.00992 10.3515 2.94464 10.343 2.88329 10.3593L2.44979 10.4754L1.93226 8.47573L3.6763 8.0056C4.06589 7.90066 4.47367 7.83408 4.81726 8.05704C4.93201 8.13136 5.06311 8.2229 5.21513 8.32882C5.65245 8.63363 6.19548 9.0122 6.79059 9.29466C6.96408 9.41475 7.02184 9.62846 6.92441 9.79738C6.8271 9.96596 6.67377 10.0167 6.46846 9.94842C6.1485 9.79204 5.31255 9.29305 5.17295 9.2124C5.05853 9.14636 4.91239 9.18559 4.84635 9.2999C4.78031 9.41433 4.81954 9.56046 4.93386 9.6265C5.07051 9.7054 6.41265 10.4515 6.48022 10.4816C6.86088 10.6518 7.23061 10.6842 7.61041 10.5809L10.0135 9.92714C10.6667 9.7494 11.1259 9.82688 11.2123 10.1293C11.2706 10.334 11.1483 10.6055 10.974 10.6576ZM1.19066 8.41056C1.17682 8.52891 1.0697 8.61347 0.951459 8.59963C0.833112 8.58579 0.748549 8.47867 0.762389 8.36043C0.776229 8.24208 0.88335 8.15752 1.00159 8.17136C1.11994 8.1852 1.2045 8.29221 1.19066 8.41056Z" fill="black"/>
<path d="M9.33602 3.33788C9.19068 3.33788 9.06816 3.29255 8.96845 3.20188C8.86875 3.11122 8.8189 3.00023 8.8189 2.86892C8.8189 2.7376 8.86908 2.62691 8.96944 2.53683C9.06979 2.44675 9.19264 2.40171 9.33798 2.40171C9.48331 2.40171 9.60583 2.44705 9.70553 2.53772C9.80524 2.62839 9.85509 2.73937 9.85509 2.87069C9.85509 3.00199 9.80491 3.11269 9.70456 3.20277C9.6042 3.29284 9.48136 3.33788 9.33602 3.33788ZM8.42203 4.4996C8.30628 4.4996 8.20683 4.46203 8.12366 4.3869C8.0405 4.31176 7.99892 4.2219 7.99892 4.11733V1.17454C7.99892 1.06921 8.0405 0.978713 8.12366 0.90304C8.20683 0.827372 8.30628 0.789537 8.42203 0.789537H8.74204V0.5H9.14054V0.789537H10.8539V0.5H11.2524V0.789537H11.5724C11.689 0.789537 11.7891 0.827372 11.8729 0.90304C11.9566 0.978713 11.9985 1.06921 11.9985 1.17454V4.11733C11.9985 4.2219 11.9566 4.31176 11.8729 4.3869C11.7891 4.46203 11.689 4.4996 11.5724 4.4996H8.42203ZM8.42203 4.11733H11.5724V2.06686H8.42203V4.11733ZM8.42203 1.77732H11.5724V1.17454H8.42203V1.77732Z" fill="black"/>
</svg>
