<svg width="16" height="13" viewBox="0 0 16 13" fill="none" xmlns="http://www.w3.org/2000/svg">
<path d="M2.41704 12.5829V5.65826L1.02763 6.72717L0.359375 5.8554L8.00035 0.0205078L15.6413 5.8554L14.9731 6.7352L13.5837 5.65826V12.5829H2.41704ZM3.50035 11.4996H12.5004V4.82601L8.00035 1.39547L3.50035 4.81213V11.4996ZM5.00475 8.40347C4.82554 8.40347 4.67103 8.34003 4.54123 8.21315C4.41142 8.08626 4.34652 7.93322 4.34652 7.75403C4.34652 7.57482 4.40996 7.42031 4.53683 7.29051C4.66372 7.1607 4.81676 7.0958 4.99596 7.0958C5.17517 7.0958 5.32967 7.15924 5.45948 7.28611C5.58928 7.413 5.65419 7.56604 5.65419 7.74524C5.65419 7.92445 5.59075 8.07895 5.46387 8.20876C5.33699 8.33856 5.18394 8.40347 5.00475 8.40347ZM8.00475 8.40347C7.82554 8.40347 7.67103 8.34003 7.54123 8.21315C7.41142 8.08626 7.34652 7.93322 7.34652 7.75403C7.34652 7.57482 7.40996 7.42031 7.53683 7.29051C7.66372 7.1607 7.81676 7.0958 7.99596 7.0958C8.17517 7.0958 8.32967 7.15924 8.45948 7.28611C8.58928 7.413 8.65419 7.56604 8.65419 7.74524C8.65419 7.92445 8.59075 8.07895 8.46387 8.20876C8.33699 8.33856 8.18394 8.40347 8.00475 8.40347ZM11.0048 8.40347C10.8255 8.40347 10.671 8.34003 10.5412 8.21315C10.4114 8.08626 10.3465 7.93322 10.3465 7.75403C10.3465 7.57482 10.41 7.42031 10.5368 7.29051C10.6637 7.1607 10.8168 7.0958 10.996 7.0958C11.1752 7.0958 11.3297 7.15924 11.4595 7.28611C11.5893 7.413 11.6542 7.56604 11.6542 7.74524C11.6542 7.92445 11.5907 8.07895 11.4639 8.20876C11.337 8.33856 11.1839 8.40347 11.0048 8.40347Z" fill="#1C1B1F"/>
</svg>
