<svg width="20" height="20" viewBox="0 0 20 20" fill="none" xmlns="http://www.w3.org/2000/svg">
<path d="M5.83203 0C2.61643 0 0 2.61797 0 5.83437V14.1672C0 17.3832 2.61797 20 5.83437 20H14.1672C17.3832 20 20 17.382 20 14.1656V5.83203C20 2.61643 17.382 0 14.1656 0H5.83203ZM16 3.2C16.4416 3.2 16.8 3.5584 16.8 4C16.8 4.4416 16.4416 4.8 16 4.8C15.5584 4.8 15.2 4.4416 15.2 4C15.2 3.5584 15.5584 3.2 16 3.2ZM10 4.8C12.868 4.8 15.2 7.132 15.2 10C15.2 12.868 12.8676 15.2 10 15.2C7.132 15.2 4.8 12.8676 4.8 10C4.8 7.1324 7.132 4.8 10 4.8ZM10 6.4C8.0116 6.4 6.4 8.0116 6.4 10C6.4 11.9884 8.0116 13.6 10 13.6C11.9884 13.6 13.6 11.9884 13.6 10C13.6 8.0116 11.9884 6.4 10 6.4Z" fill="white"/>
</svg>
