<svg width="16" height="15" viewBox="0 0 16 15" fill="none" xmlns="http://www.w3.org/2000/svg">
<path d="M4.00086 5.16699C3.57886 5.16699 3.22177 5.0209 2.92957 4.7287C2.63736 4.43651 2.49126 4.07941 2.49126 3.65741C2.49126 3.23539 2.63736 2.87829 2.92957 2.5861C3.22177 2.2939 3.57886 2.1478 4.00086 2.1478C4.42286 2.1478 4.77996 2.2939 5.07216 2.5861C5.36436 2.87829 5.51047 3.23539 5.51047 3.65741C5.51047 4.07941 5.36436 4.43651 5.07216 4.7287C4.77996 5.0209 4.42286 5.16699 4.00086 5.16699ZM1.77332 14.5836C1.39939 14.5836 1.08262 14.4538 0.82301 14.1942C0.563399 13.9346 0.433594 13.6178 0.433594 13.2439V8.41699H2.85345V7.58524C2.85345 7.20063 2.99714 6.8681 3.28453 6.58766C3.57192 6.30721 3.91486 6.16699 4.31336 6.16699C4.49285 6.16699 4.66726 6.19718 4.83659 6.25756C5.00593 6.31792 5.1579 6.40846 5.29251 6.52918L7.26047 8.28878C7.2765 8.30481 7.29653 8.32351 7.32057 8.34489C7.3446 8.36625 7.37799 8.39028 7.42074 8.41699H15.5681V13.2439C15.5681 13.6178 15.4383 13.9346 15.1787 14.1942C14.9191 14.4538 14.6023 14.5836 14.2284 14.5836H1.77332ZM12.6259 5.59647L12.6098 5.61249C12.7466 5.16805 12.7736 4.71933 12.6908 4.26635C12.608 3.81335 12.4069 3.42018 12.0874 3.08685C11.7466 2.74069 11.495 2.33525 11.3326 1.87051C11.1702 1.40578 11.1392 0.931957 11.2397 0.449055V0.416992H12.3711C12.2984 0.77277 12.2979 1.13335 12.3694 1.49872C12.441 1.86411 12.6157 2.17341 12.8935 2.42662C13.2952 2.82833 13.5655 3.31016 13.7044 3.87212C13.8433 4.43408 13.8556 4.99817 13.7412 5.56441V5.59647H12.6259ZM9.62589 5.59647L9.60984 5.61249C9.70494 5.16805 9.72151 4.71586 9.65953 4.25593C9.59756 3.79598 9.40685 3.40629 9.08741 3.08685C8.7466 2.7268 8.49153 2.31442 8.3222 1.84968C8.15285 1.38494 8.12534 0.918069 8.23966 0.449055V0.416992H9.37105C9.30373 0.77277 9.308 1.13068 9.38386 1.49072C9.45973 1.85076 9.6296 2.16273 9.89349 2.42662C10.3091 2.82833 10.5989 3.31149 10.7629 3.87612C10.9269 4.44076 10.9197 5.00352 10.7412 5.56441V5.59647H9.62589ZM11.7284 13.5003H13.581V9.47947H11.7284V13.5003ZM8.62584 13.5003H10.4784V9.47947H8.62584V13.5003ZM5.52328 13.5003H7.37589V9.47947H5.52328V13.5003ZM2.42074 13.5003H4.27332V9.47947H2.42074V13.5003Z" fill="#1C1B1F"/>
</svg>
