<svg width="12" height="12" viewBox="0 0 12 12" fill="none" xmlns="http://www.w3.org/2000/svg">
<path d="M6 2C6.965 2 8.5 2.7 8.5 4.575C8.5 5.655 7.64 6.91 6 8.235C4.36 6.91 3.5 5.65 3.5 4.575C3.5 2.7 5.035 2 6 2ZM6 1C4.365 1 2.5 2.23 2.5 4.575C2.5 6.135 3.665 7.78 6 9.5C8.335 7.78 9.5 6.135 9.5 4.575C9.5 2.23 7.635 1 6 1Z" fill="white"/>
<path d="M6 3.5C5.45 3.5 5 3.95 5 4.5C5 5.05 5.45 5.5 6 5.5C6.26522 5.5 6.51957 5.39464 6.70711 5.20711C6.89464 5.01957 7 4.76522 7 4.5C7 4.23478 6.89464 3.98043 6.70711 3.79289C6.51957 3.60536 6.26522 3.5 6 3.5ZM2.5 10H9.5V11H2.5V10Z" fill="white"/>
</svg>
