<svg width="15" height="16" viewBox="0 0 15 16" fill="none" xmlns="http://www.w3.org/2000/svg">
<mask id="mask0_101_1362" style="mask-type:alpha" maskUnits="userSpaceOnUse" x="0" y="0" width="15" height="16">
<rect y="0.5" width="15" height="15" fill="#D9D9D9"/>
</mask>
<g mask="url(#mask0_101_1362)">
<path d="M2.81731 12.1875C2.53598 12.1875 2.29818 12.0903 2.10391 11.8959C1.90964 11.7015 1.8125 11.4635 1.8125 11.182V4.81287C1.8125 4.53137 1.90964 4.29427 2.10391 4.10156C2.29818 3.90885 2.53598 3.8125 2.81731 3.8125H12.1827C12.464 3.8125 12.7018 3.9097 12.8961 4.10409C13.0903 4.29849 13.1875 4.53644 13.1875 4.81794V11.1871C13.1875 11.4686 13.0903 11.7057 12.8961 11.8984C12.7018 12.0911 12.464 12.1875 12.1827 12.1875H2.81731ZM7.49998 8.47352L2.62498 5.60453V11.1827C2.62498 11.2387 2.64302 11.2848 2.67908 11.3209C2.71514 11.357 2.76122 11.375 2.81731 11.375H12.1827C12.2388 11.375 12.2848 11.357 12.3209 11.3209C12.357 11.2848 12.375 11.2387 12.375 11.1827V5.60453L7.49998 8.47352ZM7.49998 7.42186L12.2788 4.62498H2.72114L7.49998 7.42186ZM2.62498 5.60453V4.62498V11.1827C2.62498 11.2387 2.64302 11.2848 2.67908 11.3209C2.71514 11.357 2.76122 11.375 2.81731 11.375H2.62498V5.60453Z" fill="#555555"/>
</g>
</svg>
