<svg width="16" height="17" viewBox="0 0 16 17" fill="none" xmlns="http://www.w3.org/2000/svg">
<path d="M3.25772 12.2439H4.50128V11.2439H11.5013V12.2439H12.7448V8.99066C12.7448 8.5911 12.5977 8.26285 12.3033 8.00591C12.009 7.74898 11.6562 7.64989 11.2448 7.70866V6.35289C11.2448 5.97779 11.1153 5.66073 10.8563 5.4017C10.5973 5.14267 10.2802 5.01316 9.90511 5.01316H6.09745C5.72234 5.01316 5.40527 5.14267 5.14624 5.4017C4.88723 5.66073 4.75772 5.97779 4.75772 6.35289V7.70866C4.34639 7.64989 3.99355 7.74898 3.69922 8.00591C3.40489 8.26285 3.25772 8.5911 3.25772 8.99066V12.2439ZM4.50128 10.0003V8.98428L4.49326 8.99228L4.48526 9.00031H11.5173L11.5093 8.99228L11.5013 8.98428V10.0003H4.50128ZM6.00128 7.75674V6.51316C6.00128 6.43837 6.02532 6.37693 6.07341 6.32885C6.12149 6.28078 6.18293 6.25674 6.25772 6.25674H9.74484C9.81964 6.25674 9.88107 6.28078 9.92916 6.32885C9.97724 6.37693 10.0013 6.43837 10.0013 6.51316V7.75674H6.00128ZM1.75772 16.0836C1.38261 16.0836 1.06554 15.9541 0.80651 15.6951C0.547483 15.436 0.417969 15.119 0.417969 14.7439V2.25674C0.417969 1.88163 0.547483 1.56456 0.80651 1.30553C1.06554 1.04651 1.38261 0.916992 1.75772 0.916992H14.2448C14.62 0.916992 14.937 1.04651 15.1961 1.30553C15.4551 1.56456 15.5846 1.88163 15.5846 2.25674V14.7439C15.5846 15.119 15.4551 15.436 15.1961 15.6951C14.937 15.9541 14.62 16.0836 14.2448 16.0836H1.75772ZM1.75772 15.0003H14.2448C14.309 15.0003 14.3677 14.9736 14.4212 14.9202C14.4746 14.8667 14.5013 14.808 14.5013 14.7439V2.25674C14.5013 2.19263 14.4746 2.13386 14.4212 2.08043C14.3677 2.02701 14.309 2.0003 14.2448 2.0003H1.75772C1.69361 2.0003 1.63484 2.02701 1.58141 2.08043C1.52799 2.13386 1.50128 2.19263 1.50128 2.25674V14.7439C1.50128 14.808 1.52799 14.8667 1.58141 14.9202C1.63484 14.9736 1.69361 15.0003 1.75772 15.0003Z" fill="#1C1B1F"/>
</svg>
