<svg width="20" height="20" viewBox="0 0 20 20" fill="none" xmlns="http://www.w3.org/2000/svg">
<path d="M4.89616 15H13.2295C13.6715 15 14.0954 14.8244 14.408 14.5118C14.7206 14.1993 14.8962 13.7754 14.8962 13.3333H15.0003C15.4424 13.3333 15.8663 13.1577 16.1788 12.8452C16.4914 12.5326 16.667 12.1087 16.667 11.6667V6.66667C16.667 6.22464 16.4914 5.80072 16.1788 5.48816C15.8663 5.17559 15.4424 5 15.0003 5H6.66699C6.22496 5 5.80104 5.17559 5.48848 5.48816C5.17592 5.80072 5.00033 6.22464 5.00033 6.66667H4.89616C4.45413 6.66667 4.03021 6.84226 3.71765 7.15482C3.40509 7.46738 3.22949 7.89131 3.22949 8.33333V13.3333C3.22949 13.7754 3.40509 14.1993 3.71765 14.5118C4.03021 14.8244 4.45413 15 4.89616 15ZM14.0628 10H4.06283V9.16667H14.0628V10ZM6.66699 5.83333H15.0003C15.2213 5.83333 15.4333 5.92113 15.5896 6.07741C15.7459 6.23369 15.8337 6.44565 15.8337 6.66667V11.6667C15.8337 11.8877 15.7459 12.0996 15.5896 12.2559C15.4333 12.4122 15.2213 12.5 15.0003 12.5H14.8962V8.33333C14.8962 7.89131 14.7206 7.46738 14.408 7.15482C14.0954 6.84226 13.6715 6.66667 13.2295 6.66667H5.83366C5.83366 6.44565 5.92146 6.23369 6.07774 6.07741C6.23402 5.92113 6.44598 5.83333 6.66699 5.83333ZM4.89616 7.5H13.2295C13.4505 7.5 13.6625 7.5878 13.8187 7.74408C13.975 7.90036 14.0628 8.11232 14.0628 8.33333H4.06283C4.06283 8.11232 4.15062 7.90036 4.3069 7.74408C4.46318 7.5878 4.67515 7.5 4.89616 7.5ZM14.0628 10.8333V13.3333C14.0628 13.5543 13.975 13.7663 13.8187 13.9226C13.6625 14.0789 13.4505 14.1667 13.2295 14.1667H4.89616C4.67515 14.1667 4.46318 14.0789 4.3069 13.9226C4.15062 13.7663 4.06283 13.5543 4.06283 13.3333V10.8333H14.0628Z" fill="white"/>
<path d="M10.2077 12.9154H12.7077C12.8182 12.9154 12.9242 12.8715 13.0023 12.7933C13.0805 12.7152 13.1243 12.6092 13.1243 12.4987C13.1243 12.3882 13.0805 12.2822 13.0023 12.2041C12.9242 12.1259 12.8182 12.082 12.7077 12.082H10.2077C10.0972 12.082 9.99119 12.1259 9.91305 12.2041C9.83491 12.2822 9.79102 12.3882 9.79102 12.4987C9.79102 12.6092 9.83491 12.7152 9.91305 12.7933C9.99119 12.8715 10.0972 12.9154 10.2077 12.9154Z" fill="white"/>
</svg>
