<svg width="16" height="15" viewBox="0 0 16 15" fill="none" xmlns="http://www.w3.org/2000/svg">
<path d="M2.00382 6.7913C1.5036 6.7913 1.07908 6.6186 0.73026 6.27322C0.381441 5.92783 0.207031 5.50502 0.207031 5.0048C0.207031 4.50458 0.379726 4.08006 0.725115 3.73124C1.0705 3.38242 1.49331 3.20801 1.99353 3.20801C2.49375 3.20801 2.91827 3.3807 3.26709 3.72609C3.61591 4.07148 3.79032 4.49429 3.79032 4.99451C3.79032 5.49473 3.61763 5.91925 3.27224 6.26807C2.92685 6.61689 2.50405 6.7913 2.00382 6.7913ZM5.50382 3.7913C5.0036 3.7913 4.57908 3.61861 4.23026 3.27322C3.88144 2.92783 3.70703 2.50502 3.70703 2.0048C3.70703 1.50458 3.87973 1.08006 4.22511 0.731237C4.5705 0.382417 4.99331 0.208008 5.49353 0.208008C5.99375 0.208008 6.41827 0.380702 6.76709 0.726091C7.11591 1.07148 7.29032 1.49429 7.29032 1.99451C7.29032 2.49473 7.11763 2.91925 6.77224 3.26807C6.42685 3.61689 6.00405 3.7913 5.50382 3.7913ZM10.5038 3.7913C10.0036 3.7913 9.57908 3.61861 9.23026 3.27322C8.88144 2.92783 8.70703 2.50502 8.70703 2.0048C8.70703 1.50458 8.87973 1.08006 9.22511 0.731237C9.5705 0.382417 9.99331 0.208008 10.4935 0.208008C10.9938 0.208008 11.4183 0.380702 11.7671 0.726091C12.1159 1.07148 12.2903 1.49429 12.2903 1.99451C12.2903 2.49473 12.1176 2.91925 11.7722 3.26807C11.4269 3.61689 11.004 3.7913 10.5038 3.7913ZM14.0038 6.7913C13.5036 6.7913 13.0791 6.6186 12.7303 6.27322C12.3814 5.92783 12.207 5.50502 12.207 5.0048C12.207 4.50458 12.3797 4.08006 12.7251 3.73124C13.0705 3.38242 13.4933 3.20801 13.9935 3.20801C14.4938 3.20801 14.9183 3.3807 15.2671 3.72609C15.6159 4.07148 15.7903 4.49429 15.7903 4.99451C15.7903 5.49473 15.6176 5.91925 15.2722 6.26807C14.9269 6.61689 14.504 6.7913 14.0038 6.7913ZM3.93618 14.8121C3.46182 14.8121 3.05851 14.6175 2.72626 14.2283C2.394 13.839 2.22786 13.36 2.22786 12.7913C2.22786 12.1599 2.44608 11.6228 2.88251 11.1799C3.31894 10.7371 3.74442 10.2807 4.15895 9.81057C4.52006 9.38856 4.84084 8.96361 5.12128 8.53572C5.40174 8.10784 5.69902 7.67863 6.01311 7.24807C6.27486 6.91367 6.56851 6.65672 6.89405 6.47724C7.21959 6.29775 7.5878 6.20801 7.99868 6.20801C8.41548 6.20801 8.79265 6.29561 9.13018 6.47082C9.46772 6.64603 9.75775 6.90351 10.0003 7.24326C10.3197 7.67381 10.617 8.09822 10.8921 8.51649C11.1672 8.93476 11.4826 9.35918 11.8384 9.78974C12.239 10.2737 12.6645 10.7336 13.1148 11.1695C13.5652 11.6054 13.7903 12.1483 13.7903 12.798C13.7903 13.3484 13.6207 13.8182 13.2815 14.2074C12.9423 14.5967 12.5286 14.7913 12.0403 14.7913C11.3459 14.7913 10.6723 14.708 10.0195 14.5413C9.36673 14.3746 8.69312 14.2913 7.99868 14.2913C7.30423 14.2913 6.62715 14.3781 5.96743 14.5517C5.3077 14.7253 4.63062 14.8121 3.93618 14.8121Z" fill="#1C1B1F"/>
</svg>
