<svg width="16" height="14" viewBox="0 0 16 14" fill="none" xmlns="http://www.w3.org/2000/svg">
<path d="M0.207031 13.7753V12.6759C0.658948 12.6492 1.00857 12.516 1.25591 12.2761C1.50323 12.0363 1.99067 11.9163 2.71824 11.9163C3.4458 11.9163 3.93297 12.0483 4.17976 12.3122C4.42655 12.5761 4.81598 12.708 5.34803 12.708C5.88009 12.708 6.27298 12.5761 6.52672 12.3122C6.78047 12.0483 7.27112 11.9163 7.99868 11.9163C8.69845 11.9163 9.1883 12.0483 9.46822 12.3122C9.74814 12.5761 10.1506 12.708 10.6758 12.708C11.2009 12.708 11.5876 12.5761 11.836 12.3122C12.0844 12.0483 12.5724 11.9163 13.2999 11.9163C14.0275 11.9163 14.5132 12.0363 14.7571 12.2761C15.0009 12.516 15.3454 12.6492 15.7903 12.6759V13.7753C15.1867 13.7432 14.7449 13.6059 14.465 13.3634C14.1851 13.1209 13.7968 12.9996 13.2999 12.9996C12.8032 12.9996 12.4236 13.1316 12.1613 13.3955C11.899 13.6594 11.4039 13.7913 10.6758 13.7913C9.94766 13.7913 9.44366 13.6594 9.16374 13.3955C8.88382 13.1316 8.492 12.9996 7.98826 12.9996C7.48452 12.9996 7.10578 13.1316 6.85203 13.3955C6.5983 13.6594 6.09696 13.7913 5.34803 13.7913C4.5991 13.7913 4.10124 13.6594 3.85445 13.3955C3.60766 13.1316 3.22892 12.9996 2.71824 12.9996C2.20755 12.9996 1.81973 13.1209 1.55478 13.3634C1.28985 13.6059 0.840601 13.7432 0.207031 13.7753ZM0.227865 10.7753V9.67595C0.679781 9.64924 1.02593 9.51596 1.26632 9.27611C1.5067 9.03627 1.99067 8.91634 2.71824 8.91634C3.4458 8.91634 3.93511 9.04828 4.18618 9.31217C4.43725 9.57606 4.83148 9.70801 5.36887 9.70801C5.90092 9.70801 6.29382 9.57606 6.54755 9.31217C6.8013 9.04828 7.29195 8.91634 8.01951 8.91634C8.71929 8.91634 9.20647 9.04828 9.48105 9.31217C9.75562 9.57606 10.1555 9.70801 10.6806 9.70801C11.2057 9.70801 11.5916 9.57606 11.8384 9.31217C12.0852 9.04828 12.5724 8.91634 13.2999 8.91634C14.0275 8.91634 14.5132 9.03627 14.7571 9.27611C15.0009 9.51596 15.3454 9.64924 15.7903 9.67595V10.7753C15.1867 10.7432 14.7449 10.6059 14.465 10.3634C14.1851 10.1209 13.7968 9.99963 13.2999 9.99963C12.8032 9.99963 12.4231 10.1316 12.1597 10.3955C11.8964 10.6594 11.402 10.7913 10.6767 10.7913C9.9672 10.7913 9.47118 10.6594 9.18859 10.3955C8.906 10.1316 8.51965 9.99963 8.02955 9.99963C7.52351 9.99963 7.13529 10.1316 6.86489 10.3955C6.59448 10.6594 6.09581 10.7913 5.36887 10.7913C4.63596 10.7913 4.13864 10.6594 3.87689 10.3955C3.61514 10.1316 3.22892 9.99963 2.71824 9.99963C2.20755 9.99963 1.82107 10.1209 1.5588 10.3634C1.29654 10.6059 0.852892 10.7432 0.227865 10.7753ZM3.9923 6.71599L6.74389 3.96438L5.70901 2.92951C5.26858 2.48908 4.82214 2.18526 4.36968 2.01807C3.91722 1.85086 3.33362 1.75924 2.61889 1.74322V0.208008C3.52773 0.224036 4.28025 0.338327 4.87645 0.550883C5.47264 0.763439 6.06093 1.1625 6.6413 1.74807L11.7342 6.82015C11.5344 6.9131 11.3675 7.01139 11.2334 7.11503C11.0994 7.21865 10.9073 7.27047 10.6573 7.27047C10.2353 7.27047 9.87502 7.13852 9.57641 6.87463C9.2778 6.61074 8.75189 6.4788 7.99868 6.4788C7.21769 6.4788 6.68831 6.61074 6.41053 6.87463C6.13275 7.13852 5.77592 7.27047 5.34003 7.27047C5.03448 7.27047 4.80771 7.19782 4.65974 7.05253C4.51178 6.90722 4.2893 6.79504 3.9923 6.71599ZM11.3818 0.288133C11.8924 0.288133 12.3275 0.466549 12.687 0.823383C13.0465 1.18022 13.2262 1.61189 13.2262 2.1184C13.2262 2.63297 13.048 3.06981 12.6917 3.42892C12.3353 3.78804 11.9018 3.96759 11.3912 3.96759C10.8806 3.96759 10.4455 3.78804 10.086 3.42892C9.72651 3.06981 9.54676 2.63297 9.54676 2.1184C9.54676 1.61189 9.72495 1.18022 10.0813 0.823383C10.4377 0.466549 10.8712 0.288133 11.3818 0.288133Z" fill="#1C1B1F"/>
</svg>
