<svg width="13" height="12" viewBox="0 0 13 12" fill="none" xmlns="http://www.w3.org/2000/svg">
<path d="M11.4062 12L7.29688 7.89062L8.01562 7.17188L12.125 11.2812L11.4062 12ZM2.5 11.2812C1.94792 10.6771 1.53906 10.0078 1.27344 9.27344C1.00781 8.53906 0.875 7.79167 0.875 7.03125C0.875 6.21875 1.02604 5.42708 1.32812 4.65625C1.63021 3.88542 2.08854 3.19271 2.70312 2.57812C3.31771 1.96354 4.01302 1.50521 4.78906 1.20312C5.5651 0.901042 6.35938 0.75 7.17188 0.75C7.93229 0.75 8.67969 0.882812 9.41406 1.14844C10.1484 1.41406 10.8125 1.82292 11.4062 2.375L2.5 11.2812ZM2.54688 9.89062L3.625 8.79688C3.45833 8.56771 3.29167 8.32031 3.125 8.05469C2.95833 7.78906 2.80469 7.50781 2.66406 7.21094C2.52344 6.91406 2.40625 6.60677 2.3125 6.28906C2.21875 5.97135 2.15625 5.64583 2.125 5.3125C1.84375 6.08333 1.7474 6.86979 1.83594 7.67188C1.92448 8.47396 2.16146 9.21354 2.54688 9.89062ZM4.375 8.09375L8.21875 4.21875C7.73958 3.84375 7.2526 3.54948 6.75781 3.33594C6.26302 3.1224 5.79167 2.98177 5.34375 2.91406C4.89583 2.84635 4.4974 2.84635 4.14844 2.91406C3.79948 2.98177 3.53125 3.10938 3.34375 3.29688C3.15625 3.48438 3.03646 3.7526 2.98438 4.10156C2.93229 4.45052 2.94531 4.84115 3.02344 5.27344C3.10156 5.70573 3.2526 6.16406 3.47656 6.64844C3.70052 7.13281 4 7.61458 4.375 8.09375ZM8.92188 3.5L10.0469 2.42188C9.35938 1.98438 8.61198 1.72917 7.80469 1.65625C6.9974 1.58333 6.20833 1.69792 5.4375 2C5.75 2.03125 6.0599 2.09375 6.36719 2.1875C6.67448 2.28125 6.97656 2.39323 7.27344 2.52344C7.57031 2.65365 7.85677 2.80208 8.13281 2.96875C8.40885 3.13542 8.67188 3.3125 8.92188 3.5Z" fill="black"/>
</svg>
