<svg width="17" height="14" viewBox="0 0 17 14" fill="none" xmlns="http://www.w3.org/2000/svg">
<path d="M16.7582 5.83739L8.59586 0.545582C8.50128 0.484806 8.38314 0.484806 8.29198 0.545582L0.129624 5.83739C-0.002059 5.92185 -0.0392797 6.09746 0.0451722 6.22914C0.0992361 6.31359 0.1904 6.35752 0.281564 6.35752C0.332212 6.35752 0.386276 6.34398 0.433507 6.31359L8.44389 1.11947L16.4543 6.30997C16.586 6.39443 16.7582 6.3572 16.8426 6.22552C16.9271 6.09725 16.8866 5.92164 16.7582 5.83718L16.7582 5.83739Z" fill="black"/>
<path d="M2.52038 7.16803H2.43593C1.63559 7.20183 0.970234 7.85696 0.922985 8.65731C0.896012 9.10312 1.04795 9.52525 1.34853 9.8494C1.58151 10.0993 1.89222 10.2648 2.2232 10.3256V12.3518C2.2232 12.9834 2.73649 13.5 3.36464 13.5H13.5198C14.1479 13.5 14.6612 12.9867 14.6612 12.3518V10.3256C14.9922 10.2648 15.3029 10.0993 15.5359 9.8494C15.8398 9.52513 15.9918 9.10299 15.9614 8.65731C15.9108 7.85696 15.2456 7.20174 14.4485 7.16803H14.364C13.5333 7.17474 12.8578 7.87379 12.8578 8.7282V10.2411C12.8578 10.545 12.6113 10.7917 12.3107 10.7917H4.5738C4.27321 10.7917 4.02668 10.5451 4.02668 10.2411V8.7282C4.02668 7.87719 3.35131 7.17816 2.52045 7.16803H2.52038ZM4.57373 11.3556H12.3139C12.9252 11.3556 13.425 10.8559 13.425 10.2412V8.72823C13.425 8.18454 13.8506 7.73873 14.374 7.73529H14.4281C14.9448 7.75555 15.3736 8.1777 15.404 8.69442C15.4209 8.98146 15.323 9.25508 15.1305 9.46438C14.9347 9.6738 14.6713 9.78864 14.3841 9.78864C14.2288 9.78864 14.1038 9.91702 14.1038 10.0723V12.3552C14.1038 12.676 13.8437 12.9361 13.5263 12.9361L3.36815 12.9362C3.0473 12.9362 2.78723 12.6761 2.78723 12.3553V10.0724C2.78723 9.91702 2.66226 9.78876 2.5069 9.78876C2.22328 9.78876 1.95637 9.67392 1.7605 9.46449C1.56462 9.25507 1.46674 8.98157 1.48359 8.69454C1.51398 8.17781 1.94282 7.75568 2.45954 7.73541H2.50348H2.51361C3.03703 7.73883 3.4626 8.18454 3.4626 8.72834V10.2413C3.46272 10.8525 3.96248 11.3556 4.57379 11.3556L4.57373 11.3556Z" fill="black"/>
<path d="M11.7091 9.9743C11.9691 9.9743 12.1819 9.76158 12.1819 9.4981V4.82773C12.1819 4.56437 11.9691 4.35153 11.7091 4.35153H5.17768C4.91761 4.35153 4.70488 4.56425 4.70488 4.82773V9.4981C4.70488 9.76147 4.9176 9.9743 5.17768 9.9743H11.7091ZM5.26542 4.91889H11.6213V6.88093L5.26542 6.88105V4.91889ZM5.26542 7.445H11.6213V9.40704H5.26542V7.445Z" fill="black"/>
</svg>
