<svg width="13" height="11" viewBox="0 0 13 11" fill="none" xmlns="http://www.w3.org/2000/svg">
<path d="M0.652344 10.1219V9.30945C0.948813 9.29342 1.192 9.23593 1.38191 9.13697C1.57181 9.03801 1.75551 8.93164 1.93298 8.81786C2.11046 8.70408 2.31719 8.60071 2.55317 8.50777C2.78915 8.41482 3.10345 8.36834 3.49608 8.36834C3.89912 8.36834 4.22103 8.41782 4.46181 8.51678C4.7026 8.61574 4.91976 8.72512 5.11327 8.84491C5.30678 8.9647 5.50649 9.07407 5.71242 9.17303C5.91835 9.27199 6.17957 9.32147 6.49608 9.32147C6.82301 9.32147 7.08683 9.27199 7.28755 9.17303C7.48827 9.07407 7.68538 8.9647 7.87889 8.84491C8.0724 8.72512 8.29216 8.61574 8.53816 8.51678C8.78415 8.41782 9.10345 8.36834 9.49608 8.36834C9.89912 8.36834 10.216 8.41482 10.4468 8.50777C10.6776 8.60071 10.8817 8.70408 11.0592 8.81786C11.2367 8.93164 11.4193 9.03801 11.6073 9.13697C11.7951 9.23593 12.0393 9.29342 12.3398 9.30945V10.1219C11.9752 10.1099 11.68 10.0544 11.454 9.95545C11.228 9.85649 11.0243 9.75013 10.8428 9.63634C10.6613 9.52256 10.4696 9.4182 10.2677 9.32325C10.0658 9.22829 9.80858 9.18081 9.49608 9.18081C9.17316 9.18081 8.91034 9.23029 8.70761 9.32925C8.50489 9.42821 8.30577 9.53758 8.11025 9.65738C7.91474 9.77717 7.69659 9.88654 7.45581 9.9855C7.21502 10.0845 6.89511 10.1339 6.49608 10.1339C6.10746 10.1339 5.79016 10.0845 5.54416 9.9855C5.29817 9.88654 5.07742 9.77717 4.88191 9.65738C4.68639 9.53758 4.48466 9.42821 4.27673 9.32925C4.0688 9.23029 3.80858 9.18081 3.49608 9.18081C3.18358 9.18081 2.92636 9.22829 2.72444 9.32325C2.52252 9.4182 2.33082 9.52256 2.14933 9.63634C1.96784 9.75013 1.76672 9.85649 1.54597 9.95545C1.32521 10.0544 1.02733 10.1099 0.652344 10.1219ZM0.652344 7.62675V6.81427C0.948813 6.79825 1.192 6.74076 1.38191 6.6418C1.57181 6.54284 1.75551 6.43647 1.93298 6.32269C2.11046 6.20891 2.31719 6.10554 2.55317 6.01258C2.78915 5.91963 3.10345 5.87316 3.49608 5.87316C3.89912 5.87316 4.22103 5.92264 4.46181 6.02159C4.7026 6.12055 4.91976 6.22993 5.11327 6.34972C5.30678 6.46951 5.50649 6.57889 5.71242 6.67784C5.91835 6.7768 6.17957 6.82628 6.49608 6.82628C6.82301 6.82628 7.08683 6.7768 7.28755 6.67784C7.48827 6.57889 7.68538 6.46951 7.87889 6.34972C8.0724 6.22993 8.28955 6.12055 8.53034 6.02159C8.77112 5.92264 9.09304 5.87316 9.49608 5.87316C9.89912 5.87316 10.216 5.91963 10.4468 6.01258C10.6776 6.10554 10.8817 6.20891 11.0592 6.32269C11.2367 6.43647 11.4193 6.54284 11.6073 6.6418C11.7951 6.74076 12.0393 6.79825 12.3398 6.81427V7.62675C11.9752 7.61473 11.68 7.55924 11.454 7.46028C11.228 7.36132 11.0243 7.25495 10.8428 7.14117C10.6613 7.02739 10.4696 6.92302 10.2677 6.82806C10.0658 6.73312 9.80858 6.68564 9.49608 6.68564C9.17717 6.68564 8.91635 6.73512 8.71362 6.83408C8.5109 6.93304 8.31178 7.04241 8.11627 7.1622C7.92076 7.28199 7.7016 7.39137 7.45881 7.49033C7.21602 7.58929 6.89511 7.63877 6.49608 7.63877C6.10746 7.63877 5.79016 7.58929 5.54416 7.49033C5.29817 7.39137 5.07742 7.28199 4.88191 7.1622C4.68639 7.04241 4.48466 6.93304 4.27673 6.83408C4.0688 6.73512 3.80858 6.68564 3.49608 6.68564C3.18358 6.68564 2.92636 6.73312 2.72444 6.82806C2.52252 6.92302 2.33082 7.02739 2.14933 7.14117C1.96784 7.25495 1.76672 7.36132 1.54597 7.46028C1.32521 7.55924 1.02733 7.61473 0.652344 7.62675ZM0.652344 5.11594V4.30347C0.948813 4.28744 1.192 4.22994 1.38191 4.13098C1.57181 4.03203 1.75551 3.92566 1.93298 3.81188C2.11046 3.69809 2.31719 3.59473 2.55317 3.50178C2.78915 3.40883 3.10345 3.36236 3.49608 3.36236C3.89912 3.36236 4.22103 3.41184 4.46181 3.5108C4.7026 3.60976 4.91976 3.71913 5.11327 3.83892C5.30678 3.95871 5.50649 4.06809 5.71242 4.16705C5.91835 4.26601 6.17957 4.31548 6.49608 4.31548C6.82301 4.31548 7.08683 4.26601 7.28755 4.16705C7.48827 4.06809 7.68538 3.95871 7.87889 3.83892C8.0724 3.71913 8.28955 3.60976 8.53034 3.5108C8.77112 3.41184 9.09304 3.36236 9.49608 3.36236C9.89912 3.36236 10.216 3.40883 10.4468 3.50178C10.6776 3.59473 10.8817 3.69809 11.0592 3.81188C11.2367 3.92566 11.4193 4.03203 11.6073 4.13098C11.7951 4.22994 12.0393 4.28744 12.3398 4.30347V5.11594C11.9752 5.10392 11.68 5.04843 11.454 4.94947C11.228 4.85051 11.0243 4.74414 10.8428 4.63036C10.6613 4.51658 10.4696 4.41221 10.2677 4.31727C10.0658 4.22232 9.80858 4.17484 9.49608 4.17484C9.17316 4.17484 8.91034 4.22432 8.70761 4.32328C8.50489 4.42224 8.30577 4.53161 8.11025 4.65141C7.91474 4.7712 7.69659 4.88057 7.45581 4.97953C7.21502 5.07849 6.89511 5.12797 6.49608 5.12797C6.10746 5.12797 5.79016 5.07849 5.54416 4.97953C5.29817 4.88057 5.07742 4.7712 4.88191 4.65141C4.68639 4.53161 4.48466 4.42224 4.27673 4.32328C4.0688 4.22432 3.80858 4.17484 3.49608 4.17484C3.18358 4.17484 2.92636 4.22232 2.72444 4.31727C2.52252 4.41221 2.33082 4.51658 2.14933 4.63036C1.96784 4.74414 1.76672 4.85051 1.54597 4.94947C1.32521 5.04843 1.02733 5.10392 0.652344 5.11594ZM0.652344 2.62077V1.80828C0.948813 1.79226 1.192 1.73477 1.38191 1.63581C1.57181 1.53685 1.75551 1.43048 1.93298 1.3167C2.11046 1.20292 2.31719 1.09956 2.55317 1.00661C2.78915 0.913662 3.10345 0.867188 3.49608 0.867188C3.89912 0.867188 4.22103 0.916667 4.46181 1.01562C4.7026 1.11458 4.91976 1.22396 5.11327 1.34375C5.30678 1.46354 5.50649 1.57292 5.71242 1.67188C5.91835 1.77083 6.17957 1.82031 6.49608 1.82031C6.82301 1.82031 7.08683 1.77083 7.28755 1.67188C7.48827 1.57292 7.68538 1.46354 7.87889 1.34375C8.0724 1.22396 8.29216 1.11458 8.53816 1.01562C8.78415 0.916667 9.10345 0.867188 9.49608 0.867188C9.89912 0.867188 10.216 0.913662 10.4468 1.00661C10.6776 1.09956 10.8817 1.20292 11.0592 1.3167C11.2367 1.43048 11.4193 1.53685 11.6073 1.63581C11.7951 1.73477 12.0393 1.79226 12.3398 1.80828V2.62077C11.9752 2.60874 11.68 2.55326 11.454 2.4543C11.228 2.35534 11.0243 2.24897 10.8428 2.13519C10.6613 2.02141 10.4696 1.91704 10.2677 1.82209C10.0658 1.72714 9.80858 1.67966 9.49608 1.67966C9.17316 1.67966 8.91034 1.72914 8.70761 1.82809C8.50489 1.92705 8.30577 2.03643 8.11025 2.15622C7.91474 2.27601 7.69659 2.38539 7.45581 2.48434C7.21502 2.5833 6.89511 2.63278 6.49608 2.63278C6.10746 2.63278 5.79016 2.5833 5.54416 2.48434C5.29817 2.38539 5.07742 2.27601 4.88191 2.15622C4.68639 2.03643 4.48466 1.92705 4.27673 1.82809C4.0688 1.72914 3.80858 1.67966 3.49608 1.67966C3.18358 1.67966 2.92636 1.72714 2.72444 1.82209C2.52252 1.91704 2.33082 2.02141 2.14933 2.13519C1.96784 2.24897 1.76672 2.35534 1.54597 2.4543C1.32521 2.55326 1.02733 2.60874 0.652344 2.62077Z" fill="#1C1B1F"/>
</svg>
