<svg width="10" height="11" viewBox="0 0 10 11" fill="none" xmlns="http://www.w3.org/2000/svg">
<g clip-path="url(#clip0_101_1384)">
<path d="M7.06776 6.32886C6.94915 6.26792 6.35828 5.97847 6.24837 5.93929C6.13847 5.89794 6.05794 5.87836 5.97851 6.00023C5.89798 6.12102 5.66947 6.38979 5.59765 6.47141C5.528 6.55193 5.45727 6.56173 5.33866 6.50188C4.63353 6.14931 4.17106 5.87291 3.70641 5.07529C3.58344 4.86309 3.82937 4.87833 4.05897 4.42021C4.09815 4.33968 4.07856 4.27113 4.04809 4.21019C4.01762 4.14925 3.77823 3.55946 3.67811 3.31898C3.58127 3.08502 3.48116 3.11767 3.40825 3.11332C3.33861 3.10896 3.25917 3.10896 3.17864 3.10896C3.09812 3.10896 2.96863 3.13943 2.85872 3.25804C2.74882 3.37883 2.43869 3.66937 2.43869 4.25916C2.43869 4.84895 2.86852 5.42024 2.92728 5.50076C2.98821 5.58128 3.77279 6.79133 4.97739 7.31256C5.73911 7.64119 6.03727 7.66948 6.41813 7.6129C6.64991 7.57808 7.12761 7.32344 7.22664 7.04161C7.32566 6.76086 7.32566 6.52038 7.29628 6.47032C7.2669 6.417 7.18637 6.38653 7.06776 6.32886Z" fill="white" fill-opacity="0.85"/>
<path d="M9.37138 3.48594C9.12545 2.90159 8.77289 2.37709 8.32347 1.92659C7.8772 1.4787 7.34742 1.12267 6.76412 0.878683C6.16563 0.627316 5.53014 0.5 4.87506 0.5H4.8533C4.19387 0.503265 3.55511 0.633845 2.95444 0.890653C2.37614 1.13715 1.85133 1.4938 1.40924 1.94074C0.96418 2.39015 0.614878 2.91247 0.373304 3.49464C0.123025 4.09749 -0.00320277 4.73842 6.17348e-05 5.39785C0.00375417 6.15355 0.182539 6.89812 0.522383 7.5731V9.22712C0.522383 9.35988 0.57512 9.4872 0.668993 9.58107C0.762866 9.67494 0.890185 9.72768 1.02294 9.72768H2.67805C3.35303 10.0675 4.0976 10.2463 4.8533 10.25H4.87615C5.52796 10.25 6.16019 10.1238 6.75542 9.87676C7.33577 9.63567 7.86358 9.2838 8.30933 8.84082C8.75874 8.39576 9.1124 7.87561 9.35941 7.29562C9.61622 6.69495 9.7468 6.05619 9.75006 5.39676C9.75333 4.73407 9.62492 4.09096 9.37138 3.48594ZM7.72715 8.25212C6.96435 9.00731 5.95235 9.42299 4.87506 9.42299H4.85656C4.2004 9.41973 3.54858 9.2565 2.97294 8.94964L2.88154 8.90067H1.34939V7.36853L1.30042 7.27712C0.993561 6.70148 0.830335 6.04967 0.827071 5.3935C0.822718 4.30859 1.23731 3.29007 1.99794 2.52291C2.75748 1.75575 3.77275 1.33136 4.85765 1.32701H4.87615C5.42024 1.32701 5.948 1.43256 6.44529 1.64149C6.93061 1.84498 7.36588 2.1377 7.74021 2.51203C8.11346 2.88527 8.40726 3.32162 8.61075 3.80695C8.82185 4.30968 8.92741 4.84289 8.92523 5.3935C8.9187 6.47732 8.49323 7.49258 7.72715 8.25212Z" fill="white" fill-opacity="0.85"/>
</g>
<defs>
<clipPath id="clip0_101_1384">
<rect width="9.75" height="9.75" fill="white" transform="translate(0 0.5)"/>
</clipPath>
</defs>
</svg>
