<svg width="12" height="12" viewBox="0 0 12 12" fill="none" xmlns="http://www.w3.org/2000/svg">
<path d="M6 10.4875L5.4875 10.025C4.60417 9.21666 3.875 8.51875 3.3 7.93125C2.725 7.34375 2.26667 6.81875 1.925 6.35625C1.58333 5.89375 1.34375 5.475 1.20625 5.1C1.06875 4.725 1 4.34583 1 3.9625C1 3.2125 1.25208 2.58541 1.75625 2.08125C2.26042 1.57708 2.88333 1.325 3.625 1.325C4.1 1.325 4.53958 1.4375 4.94375 1.6625C5.34792 1.8875 5.7 2.2125 6 2.6375C6.35 2.1875 6.72083 1.85625 7.1125 1.64375C7.50417 1.43125 7.925 1.325 8.375 1.325C9.11667 1.325 9.73958 1.57708 10.2438 2.08125C10.7479 2.58541 11 3.2125 11 3.9625C11 4.34583 10.9313 4.725 10.7937 5.1C10.6562 5.475 10.4167 5.89375 10.075 6.35625C9.73333 6.81875 9.275 7.34375 8.7 7.93125C8.125 8.51875 7.39583 9.21666 6.5125 10.025L6 10.4875Z" fill="white"/>
</svg>
