<svg width="16" height="14" viewBox="0 0 16 14" fill="none" xmlns="http://www.w3.org/2000/svg">
<path d="M14.5322 5.0003C14.3898 5.0003 14.2657 4.94839 14.1599 4.84458C14.0542 4.74076 14.0013 4.61212 14.0013 4.45866V0.958659C14.0013 0.805187 14.0532 0.676541 14.1571 0.572721C14.261 0.468902 14.3897 0.416992 14.5432 0.416992C14.6787 0.416992 14.8028 0.468902 14.9155 0.572721C15.0282 0.676541 15.0846 0.805187 15.0846 0.958659V4.45866C15.0846 4.61212 15.0281 4.74076 14.9152 4.84458C14.8023 4.94839 14.6747 5.0003 14.5322 5.0003ZM0.417969 13.5836V0.416992H11.5846V13.5836H0.417969ZM1.50128 6.45866H5.09745V5.80481H6.90511V6.45866H10.5013V1.5003H1.50128V6.45866ZM1.50128 12.5003H10.5013V7.54195H1.50128V12.5003Z" fill="#1C1B1F"/>
</svg>
