<svg width="27" height="20" viewBox="0 0 27 20" fill="none" xmlns="http://www.w3.org/2000/svg">
<path d="M26.1865 3.4375C25.9375 2.06299 24.751 1.06201 23.374 0.749512C21.3135 0.3125 17.5 0 13.374 0C9.25049 0 5.37598 0.3125 3.31299 0.749512C1.93848 1.06201 0.749512 1.99951 0.500488 3.4375C0.249024 5 0 7.1875 0 10C0 12.8125 0.249024 15 0.561524 16.5625C0.812988 17.937 1.99951 18.938 3.37402 19.2505C5.56152 19.6875 9.31152 20 13.4375 20C17.5635 20 21.3135 19.6875 23.501 19.2505C24.8755 18.938 26.062 18.0005 26.3135 16.5625C26.5625 15 26.875 12.749 26.9385 10C26.8115 7.1875 26.499 5 26.1865 3.4375ZM10 14.375V5.625L17.6245 10L10 14.375Z" fill="white"/>
</svg>
